<svg id="Layer_1" data-name="Layer 1" xmlns="http://www.w3.org/2000/svg" viewBox="0 0 123.556 50"><defs><style>.cls-1{fill:#fff;}.cls-2{fill:#134874;}</style></defs><title>TSI_logo_LV_white</title><path class="cls-1" d="M5.96684,0S0,0,0,6.05728v37.9753s0,5.96685,5.96684,5.96685H43.94019s6.0581,0,6.0581-5.96685V6.05728S49.99829,0,43.94019,0Z"/><polygon class="cls-2" points="13.562 32.188 16.816 32.188 16.816 20.614 20.704 20.614 20.704 17.903 9.765 17.903 9.765 20.614 13.562 20.614 13.562 32.188 13.562 32.188"/><path class="cls-2" d="M22.784,31.28277a9.49622,9.49622,0,0,0,3.79682.81558c3.61855,0,5.24486-1.99026,5.24486-4.25127,0-1.897-1.08571-3.16291-3.3447-4.067-1.71843-.72342-2.44271-1.08651-2.44271-1.99025,0-.63305.54255-1.26592,1.89985-1.26592a5.96554,5.96554,0,0,1,2.71169.63287l.633-2.52987a7.50114,7.50114,0,0,0-3.3447-.63421c-3.07459,0-4.9727,1.71833-4.9727,4.069,0,1.9883,1.44569,3.25537,3.6154,4.06788,1.6283.633,2.26132,1.0845,2.26132,1.90007,0,.90374-.72345,1.53673-2.07959,1.53673a6.95885,6.95885,0,0,1-3.3447-.90485L22.784,31.28277Z"/><polygon class="cls-2" points="35.805 32.188 39.059 32.188 39.059 17.902 35.805 17.902 35.805 32.188 35.805 32.188"/><path class="cls-1" d="M60.383.794a2.42463,2.42463,0,0,1-.01644.30057.80208.80208,0,0,1-.04549.20108.27855.27855,0,0,1-.07483.112.15811.15811,0,0,1-.10148.03716H58.17717V7.78057a.16287.16287,0,0,1-.03922.108.26755.26755,0,0,1-.13078.0788,1.25594,1.25594,0,0,1-.24661.04978,3.34042,3.34042,0,0,1-.38556.01837,3.38338,3.38338,0,0,1-.38559-.01837,1.266,1.266,0,0,1-.24488-.04978.24891.24891,0,0,1-.13048-.0788.16149.16149,0,0,1-.03952-.108V1.44482H54.605a.14711.14711,0,0,1-.10155-.03716.27894.27894,0,0,1-.07449-.112.91323.91323,0,0,1-.04577-.20108c-.00826-.08309-.01451-.18228-.01451-.30057,0-.12026.00625-.22379.01451-.30884A.90912.90912,0,0,1,54.429.28184a.256.256,0,0,1,.07449-.10979A.15443.15443,0,0,1,54.605.13881h5.53974a.16592.16592,0,0,1,.10148.03324.25569.25569,0,0,1,.07483.10979.80086.80086,0,0,1,.04549.20328A2.5707,2.5707,0,0,1,60.383.794Z"/><path class="cls-1" d="M67.14406,7.791a.23555.23555,0,0,1-.025.11407.19946.19946,0,0,1-.116.07446,1.10606,1.10606,0,0,1-.26757.04353q-.174.01277-.47887.01243c-.17,0-.30679-.00392-.40638-.01243a.9668.9668,0,0,1-.24026-.04549.27831.27831,0,0,1-.12454-.08505.51239.51239,0,0,1-.06227-.12423l-.70267-1.756q-.12751-.29859-.2488-.5289A1.77184,1.77184,0,0,0,64.2,5.09782a1.00784,1.00784,0,0,0-.34206-.234,1.20511,1.20511,0,0,0-.44988-.07905h-.49767V7.78057a.17367.17367,0,0,1-.03922.108.26759.26759,0,0,1-.13079.0788,1.2959,1.2959,0,0,1-.24455.04978,3.32521,3.32521,0,0,1-.38761.01837,3.38338,3.38338,0,0,1-.38559-.01837,1.25247,1.25247,0,0,1-.24684-.04978.236.236,0,0,1-.12653-.0788.17171.17171,0,0,1-.03726-.108V.6426a.48411.48411,0,0,1,.13679-.3855A.49774.49774,0,0,1,61.7869.13881h2.03379q.31094,0,.50989.01249c.13479.00826.255.01849.36486.029a3.36709,3.36709,0,0,1,.85418.232,2.05178,2.05178,0,0,1,.64269.42707,1.79058,1.79058,0,0,1,.40436.62625,2.28859,2.28859,0,0,1,.13877.82923,2.43789,2.43789,0,0,1-.09949.71938,1.8444,1.8444,0,0,1-.29433.5807,1.9761,1.9761,0,0,1-.48087.44354,2.59282,2.59282,0,0,1-.64893.3026,1.89926,1.89926,0,0,1,.33158.20732,1.77709,1.77709,0,0,1,.29035.29463,2.8551,2.8551,0,0,1,.259.39383,5.10807,5.10807,0,0,1,.23632.50165l.66142,1.54867c.0623.15356.10149.26757.12231.33811a.63485.63485,0,0,1,.03123.16574ZM65.0833,2.45866a1.15774,1.15774,0,0,0-.17631-.65528.94953.94953,0,0,0-.57641-.377,1.83369,1.83369,0,0,0-.27554-.04782,3.80161,3.80161,0,0,0-.4294-.01873h-.71521V3.5887h.81272a1.90032,1.90032,0,0,0,.59518-.083,1.16,1.16,0,0,0,.42487-.23.93746.93746,0,0,0,.25508-.35464,1.1854,1.1854,0,0,0,.085-.46234Z"/><path class="cls-1" d="M74.75484,7.40346a2.23192,2.23192,0,0,1,.09129.34607.20983.20983,0,0,1-.04975.19085.38567.38567,0,0,1-.23634.07874c-.114.01023-.26953.01641-.46862.01641-.20533,0-.3671-.00392-.48313-.01016A1.33245,1.33245,0,0,1,73.345,7.9901a.24823.24823,0,0,1-.12855-.07678.46288.46288,0,0,1-.06-.12852L72.6278,6.20717H69.67551l-.49767,1.53605a.4976.4976,0,0,1-.06423.1431.26343.26343,0,0,1-.12653.09129,1.00732,1.00732,0,0,1-.24883.04549q-.16168.01277-.42288.01243a4.02917,4.02917,0,0,1-.43736-.01837.32388.32388,0,0,1-.21779-.08933.23042.23042,0,0,1-.04351-.19679A2.08009,2.08009,0,0,1,67.708,7.391L70.13161.41862a.62822.62822,0,0,1,.08505-.16776.3186.3186,0,0,1,.15524-.0976A1.31068,1.31068,0,0,1,70.66651.1118c.12426-.0063.29234-.01028.49733-.01028.23864,0,.42943.004.57246.01028a1.636,1.636,0,0,1,.3296.04146.30978.30978,0,0,1,.17.10158.55015.55015,0,0,1,.089.18252l2.42991,6.9661ZM71.14541,1.64h-.00627L70.02786,4.97983h2.22886L71.14541,1.64Z"/><path class="cls-1" d="M82.33461,7.43873a.64645.64645,0,0,1-.04776.2508.53683.53683,0,0,1-.13054.18032.51312.51312,0,0,1-.19507.10776.8523.8523,0,0,1-.22808.03325h-.67989a1.3576,1.3576,0,0,1-.36682-.04348.714.714,0,0,1-.28637-.15362,1.33049,1.33049,0,0,1-.25279-.3048,5.15113,5.15113,0,0,1-.27158-.49534l-1.957-3.67375c-.112-.21982-.22807-.45408-.34637-.70689-.116-.25312-.2218-.49963-.31508-.73824h-.01253q.02481.43553.03729.87074c.00625.29034.0105.5889.0105.89578V7.77457a.18073.18073,0,0,1-.03324.10777.24052.24052,0,0,1-.114.08278.92.92,0,0,1-.22181.052,2.86926,2.86926,0,0,1-.35858.01837,2.80874,2.80874,0,0,1-.35259-.01837.87229.87229,0,0,1-.21957-.052.23045.23045,0,0,1-.10807-.08278.1937.1937,0,0,1-.03095-.10777V.709a.53093.53093,0,0,1,.168-.42713A.60206.60206,0,0,1,76.43.13881h.85822a1.59534,1.59534,0,0,1,.38785.03943A.81538.81538,0,0,1,77.958.30878a.99177.99177,0,0,1,.23433.25288,3.12263,3.12263,0,0,1,.22379.39609l1.53217,2.87354c.08924.174.17631.34607.26328.51414.087.16771.172.33578.25282.50361.08107.168.15984.33382.23659.49565q.11471.24257.22379.48512H80.931c-.01253-.2841-.02073-.57843-.027-.88721-.00627-.30688-.00829-.60151-.00829-.87931V.375A.19239.19239,0,0,1,80.931.26531a.31967.31967,0,0,1,.1223-.085A.78225.78225,0,0,1,81.277.13054a3.30253,3.30253,0,0,1,.3589-.01647A3.12832,3.12832,0,0,1,81.982.13054a.67193.67193,0,0,1,.2155.04978.2366.2366,0,0,1,.1058.085A.20438.20438,0,0,1,82.33461.375v7.0637Z"/><path class="cls-1" d="M88.70554,5.64129a2.4456,2.4456,0,0,1-.23007,1.08822,2.24067,2.24067,0,0,1-.62616.77945,2.70919,2.70919,0,0,1-.92248.47061,4.21388,4.21388,0,0,1-1.88675.09123,4.24083,4.24083,0,0,1-.61565-.15944,2.72481,2.72481,0,0,1-.4479-.19912,1.2224,1.2224,0,0,1-.257-.18252.43174.43174,0,0,1-.112-.22575,2.06547,2.06547,0,0,1-.033-.42947c0-.12625.004-.23.01026-.315a1.00368,1.00368,0,0,1,.03952-.20732.23015.23015,0,0,1,.07449-.11175.1641.1641,0,0,1,.10577-.03324.51361.51361,0,0,1,.2406.09949,3.89142,3.89142,0,0,0,.39808.22184,3.55161,3.55161,0,0,0,.57843.22177,2.77623,2.77623,0,0,0,.78141.0995,1.82642,1.82642,0,0,0,.52238-.06846,1.19676,1.19676,0,0,0,.39189-.19911.82978.82978,0,0,0,.24483-.315.9883.9883,0,0,0,.085-.41862.72934.72934,0,0,0-.1453-.45836,1.39943,1.39943,0,0,0-.37938-.33983,3.99478,3.99478,0,0,0-.53061-.28018c-.19909-.08695-.40436-.1802-.61364-.27547a5.641,5.641,0,0,1-.61367-.33186,2.54718,2.54718,0,0,1-.53291-.44361,2.10388,2.10388,0,0,1-.37937-.60947,2.20677,2.20677,0,0,1-.1453-.84594,2.24665,2.24665,0,0,1,.20962-.993,2.00673,2.00673,0,0,1,.56588-.70921,2.39816,2.39816,0,0,1,.83774-.42285A3.65837,3.65837,0,0,1,86.34417,0a3.61625,3.61625,0,0,1,.55765.04127,3.71284,3.71284,0,0,1,.52265.11627,2.91453,2.91453,0,0,1,.43112.16379.97708.97708,0,0,1,.24877.1513.4411.4411,0,0,1,.08306.10354.50682.50682,0,0,1,.035.112,1.14582,1.14582,0,0,1,.023.17634c.002.07054.004.15951.004.26531,0,.116-.002.21553-.00826.29659a1.12037,1.12037,0,0,1-.031.20108.21258.21258,0,0,1-.06031.114.1499.1499,0,0,1-.10577.03723.51367.51367,0,0,1-.21323-.085c-.09757-.056-.21586-.11811-.35887-.18454a3.10921,3.10921,0,0,0-.49139-.18234,2.12143,2.12143,0,0,0-.61367-.083,1.42241,1.42241,0,0,0-.45383.06423.91957.91957,0,0,0-.32562.17634.69838.69838,0,0,0-.19477.26959.90661.90661,0,0,0-.06432.33358.73989.73989,0,0,0,.14309.45413,1.40007,1.40007,0,0,0,.38361.34013,3.78792,3.78792,0,0,0,.5431.2778c.20306.08694.4084.18026.61994.27773a6.57391,6.57391,0,0,1,.61961.32966,2.52387,2.52387,0,0,1,.53919.44355,2.09482,2.09482,0,0,1,.38357.60745,2.134,2.134,0,0,1,.145.82329Z"/><path class="cls-1" d="M95.3088,2.52515a3.08931,3.08931,0,0,1-.20729,1.17334,2.24457,2.24457,0,0,1-.60143.85818,2.6509,2.6509,0,0,1-.968.53294,4.52985,4.52985,0,0,1-1.35185.18253H91.525V7.78057a.17385.17385,0,0,1-.03922.108.2678.2678,0,0,1-.13085.0788,1.294,1.294,0,0,1-.24451.04978,3.32552,3.32552,0,0,1-.38762.01837,3.384,3.384,0,0,1-.38562-.01837,1.25446,1.25446,0,0,1-.24681-.04978.23619.23619,0,0,1-.12656-.0788.17168.17168,0,0,1-.03723-.108V.709a.56651.56651,0,0,1,.14931-.42713.543.543,0,0,1,.39186-.143H92.319c.18687,0,.36514.00624.53293.02075a5.86447,5.86447,0,0,1,.60342.0913,2.64418,2.64418,0,0,1,.7132.25906,2.07775,2.07775,0,0,1,.61761.47685,1.97118,1.97118,0,0,1,.38786.67364,2.63124,2.63124,0,0,1,.13483.86474Zm-1.67122.116a1.40523,1.40523,0,0,0-.145-.67983,1.0203,1.0203,0,0,0-.35859-.39615,1.18852,1.18852,0,0,0-.44587-.1595,3.32431,3.32431,0,0,0-.48316-.03325H91.525v2.6661h.71515a1.74034,1.74034,0,0,0,.64068-.10372,1.11153,1.11153,0,0,0,.42315-.288,1.23736,1.23736,0,0,0,.24853-.44367,1.80184,1.80184,0,0,0,.085-.562Z"/><path class="cls-1" d="M103.616,3.97824a5.81482,5.81482,0,0,1-.24256,1.74779A3.50871,3.50871,0,0,1,102.65,7.03639a3.13473,3.13473,0,0,1-1.18583.81894,4.39763,4.39763,0,0,1-1.63794.28184,4.84872,4.84872,0,0,1-1.60071-.2383,2.76319,2.76319,0,0,1-1.138-.732A3.13059,3.13059,0,0,1,96.4033,5.9148a6.30733,6.30733,0,0,1-.228-1.79745,5.58147,5.58147,0,0,1,.24455-1.71674,3.51075,3.51075,0,0,1,.72143-1.29555A3.15115,3.15115,0,0,1,98.32932.2838,4.36362,4.36362,0,0,1,99.97124,0a4.81977,4.81977,0,0,1,1.57767.23634,2.76628,2.76628,0,0,1,1.1403.72765,3.1611,3.1611,0,0,1,.69244,1.24387,5.91136,5.91136,0,0,1,.23432,1.77038Zm-1.6752.08505a6.0479,6.0479,0,0,0-.09726-1.12778,2.42009,2.42009,0,0,0-.33183-.86872,1.57244,1.57244,0,0,0-.62194-.55761,2.12109,2.12109,0,0,0-.97226-.19906,2.0014,2.0014,0,0,0-.98471.22177,1.83852,1.83852,0,0,0-.63673.59319,2.48244,2.48244,0,0,0-.344.8645,5.33287,5.33287,0,0,0-.09956,1.04891A6.29549,6.29549,0,0,0,97.95,5.19536a2.482,2.482,0,0,0,.3276.87692,1.499,1.499,0,0,0,.61995.55572,2.19279,2.19279,0,0,0,.9785.19281,2.0152,2.0152,0,0,0,.98273-.21982,1.75867,1.75867,0,0,0,.63844-.595,2.50015,2.50015,0,0,0,.34208-.87692,5.30379,5.30379,0,0,0,.10152-1.06582Z"/><path class="cls-1" d="M110.79166,7.791a.23554.23554,0,0,1-.025.11407.19972.19972,0,0,1-.116.07446,1.10644,1.10644,0,0,1-.2676.04353q-.174.01277-.47888.01243c-.17,0-.30685-.00392-.40634-.01243a.96755.96755,0,0,1-.2403-.04549.27831.27831,0,0,1-.12457-.08505.51383.51383,0,0,1-.06227-.12423l-.70269-1.756q-.12749-.29859-.24878-.5289a1.77212,1.77212,0,0,0-.27158-.38562,1.00808,1.00808,0,0,0-.34212-.234,1.20458,1.20458,0,0,0-.44985-.07905H106.558V7.78057a.17356.17356,0,0,1-.03928.108.26766.26766,0,0,1-.13081.0788,1.29415,1.29415,0,0,1-.24452.04978,3.32545,3.32545,0,0,1-.38761.01837,3.38432,3.38432,0,0,1-.38562-.01837,1.25458,1.25458,0,0,1-.24682-.04978.23584.23584,0,0,1-.1265-.0788.17139.17139,0,0,1-.03729-.108V.6426a.48414.48414,0,0,1,.13679-.3855.49785.49785,0,0,1,.33814-.11829h2.03376q.311,0,.50988.01249c.13474.00826.25508.01849.3648.029a3.368,3.368,0,0,1,.85427.232,2.05232,2.05232,0,0,1,.64266.42707,1.79044,1.79044,0,0,1,.40436.62625,2.28859,2.28859,0,0,1,.13878.82923,2.43454,2.43454,0,0,1-.09956.71938,1.84434,1.84434,0,0,1-.2943.5807,1.97455,1.97455,0,0,1-.48089.44354,2.593,2.593,0,0,1-.64888.3026,1.89946,1.89946,0,0,1,.33156.20732,1.7754,1.7754,0,0,1,.29032.29463,2.85252,2.85252,0,0,1,.25909.39383,5.13122,5.13122,0,0,1,.23631.50165l.66143,1.54867c.06227.15356.10152.26757.12224.33811a.63447.63447,0,0,1,.03132.16574Zm-2.06079-5.33238a1.15767,1.15767,0,0,0-.17634-.65528.94955.94955,0,0,0-.57638-.377,1.83375,1.83375,0,0,0-.27556-.04782,3.80159,3.80159,0,0,0-.42943-.01873H106.558V3.5887h.8127a1.90049,1.90049,0,0,0,.59518-.083,1.15942,1.15942,0,0,0,.42483-.23.93738.93738,0,0,0,.25505-.35464,1.18523,1.18523,0,0,0,.08508-.46234Z"/><path class="cls-1" d="M117.07129.794a2.41751,2.41751,0,0,1-.0165.30057.79988.79988,0,0,1-.04549.20108.27834.27834,0,0,1-.07482.112.15814.15814,0,0,1-.10152.03716h-1.96751V7.78057a.16287.16287,0,0,1-.03922.108.26794.26794,0,0,1-.13081.0788,1.25545,1.25545,0,0,1-.24657.04978,3.34078,3.34078,0,0,1-.38556.01837,3.384,3.384,0,0,1-.38562-.01837,1.26472,1.26472,0,0,1-.24483-.04978.24893.24893,0,0,1-.13051-.0788.16149.16149,0,0,1-.03952-.108V1.44482h-1.96953a.14711.14711,0,0,1-.10155-.03716.27822.27822,0,0,1-.07448-.112.91037.91037,0,0,1-.04577-.20108c-.00824-.08309-.01451-.18228-.01451-.30057,0-.12026.00627-.22379.01451-.30884a.90634.90634,0,0,1,.04577-.20328.25537.25537,0,0,1,.07448-.10979.15443.15443,0,0,1,.10155-.03324H116.833a.166.166,0,0,1,.10152.03324.25551.25551,0,0,1,.07482.10979.79871.79871,0,0,1,.04549.20328,2.56314,2.56314,0,0,1,.0165.30884Z"/><path class="cls-1" d="M123.46126,7.40346a2.23192,2.23192,0,0,1,.09129.34607.20983.20983,0,0,1-.04975.19085.38582.38582,0,0,1-.23634.07874c-.114.01023-.26959.01641-.46862.01641-.2053,0-.3671-.00392-.48313-.01016a1.3327,1.3327,0,0,1-.26334-.03527.248.248,0,0,1-.12849-.07678.462.462,0,0,1-.06-.12852l-.52865-1.57763H118.3819l-.49761,1.53605a.49843.49843,0,0,1-.06426.1431.26367.26367,0,0,1-.12656.09129,1.007,1.007,0,0,1-.2488.04549q-.16164.01277-.42288.01243a4.02778,4.02778,0,0,1-.43733-.01837.32405.32405,0,0,1-.21785-.08933.23072.23072,0,0,1-.04351-.19679,2.07765,2.07765,0,0,1,.09133-.34007L118.838.41862a.62822.62822,0,0,1,.085-.16776.31856.31856,0,0,1,.15527-.0976,1.31092,1.31092,0,0,1,.29458-.04146c.12426-.0063.29237-.01028.49739-.01028.23858,0,.42934.004.5724.01028a1.6363,1.6363,0,0,1,.3296.04146.31.31,0,0,1,.17.10158.55016.55016,0,0,1,.089.18252l2.42991,6.9661ZM119.85183,1.64h-.00627l-1.11128,3.33987h2.22883L119.85183,1.64Z"/><path class="cls-1" d="M61.56684,17.11226a3.66511,3.66511,0,0,1-.21356,1.29353,2.55859,2.55859,0,0,1-.6239.96608,2.73626,2.73626,0,0,1-1.022.60139,4.35567,4.35567,0,0,1-1.39539.205,4.40191,4.40191,0,0,1-1.33115-.18423,2.59979,2.59979,0,0,1-.997-.562,2.48541,2.48541,0,0,1-.62218-.93926,3.67,3.67,0,0,1-.21553-1.31435V12.3978a.1719.1719,0,0,1,.03726-.10807.23444.23444,0,0,1,.13081-.0788,1.34155,1.34155,0,0,1,.24455-.04972,3.375,3.375,0,0,1,.38985-.01855,3.24066,3.24066,0,0,1,.3813.01855,1.30694,1.30694,0,0,1,.24462.04972.268.268,0,0,1,.13078.0788.17368.17368,0,0,1,.03922.10807v4.64166a2.57252,2.57252,0,0,0,.11407.81074,1.506,1.506,0,0,0,.33183.56821,1.36072,1.36072,0,0,0,.51616.33578,1.92079,1.92079,0,0,0,.67165.11407,1.85846,1.85846,0,0,0,.67392-.11634,1.30583,1.30583,0,0,0,.50364-.3378,1.49053,1.49053,0,0,0,.31931-.54512,2.26687,2.26687,0,0,0,.11208-.73824v-4.733a.17187.17187,0,0,1,.03723-.10807.235.235,0,0,1,.12656-.0788,1.30113,1.30113,0,0,1,.24651-.04972,3.37429,3.37429,0,0,1,.38562-.01855,3.20766,3.20766,0,0,1,.37965.01855,1.28612,1.28612,0,0,1,.24027.04972.23487.23487,0,0,1,.12656.0788.17032.17032,0,0,1,.03725.10807v4.71446Z"/><path class="cls-1" d="M69.75429,19.47987a.64665.64665,0,0,1-.04776.25086.53792.53792,0,0,1-.13054.18026.51251.51251,0,0,1-.19508.10782.8523.8523,0,0,1-.22808.03325h-.67989a1.3579,1.3579,0,0,1-.36682-.04353.71365.71365,0,0,1-.28637-.15357,1.3282,1.3282,0,0,1-.25278-.3048,5.14809,5.14809,0,0,1-.27162-.4954l-1.957-3.67369c-.11208-.21981-.22808-.45414-.34638-.70695-.116-.25306-.2218-.49963-.31508-.73818H64.6644q.0248.43543.03726.87074c.00627.29029.01053.5889.01053.89572v4.11338a.18069.18069,0,0,1-.03328.10776.23921.23921,0,0,1-.114.08266.91436.91436,0,0,1-.2218.05211,2.85869,2.85869,0,0,1-.35859.01843,2.79958,2.79958,0,0,1-.35265-.01843.86832.86832,0,0,1-.21954-.05211.22992.22992,0,0,1-.108-.08266.19379.19379,0,0,1-.031-.10776V12.75012a.53113.53113,0,0,1,.16808-.42714.60226.60226,0,0,1,.40833-.143h.85822a1.59252,1.59252,0,0,1,.38789.03955.81379.81379,0,0,1,.28181.13048.99243.99243,0,0,1,.23432.25276,3.13288,3.13288,0,0,1,.22379.39621l1.53217,2.87342c.08924.17414.17628.34613.26329.51421.087.16776.172.33584.25278.50361.08107.16807.15984.33388.23659.49565q.11476.24264.22382.485h.00625c-.01252-.284-.02076-.57831-.027-.88715-.00628-.30681-.00827-.60145-.00827-.87931v-3.6882a.19241.19241,0,0,1,.03527-.10972.3185.3185,0,0,1,.1223-.085.78263.78263,0,0,1,.22377-.04972,3.30007,3.30007,0,0,1,.35889-.01653,3.12555,3.12555,0,0,1,.34607.01653.6724.6724,0,0,1,.21552.04972.23564.23564,0,0,1,.10578.085.20452.20452,0,0,1,.03132.10972v7.06364Z"/><path class="cls-1" d="M78.93646,17.68243a2.44727,2.44727,0,0,1-.23,1.08829,2.24155,2.24155,0,0,1-.62622.77944,2.708,2.708,0,0,1-.92245.47061A4.21641,4.21641,0,0,1,75.271,20.112a4.24835,4.24835,0,0,1-.61566-.1595,2.71918,2.71918,0,0,1-.44786-.199,1.226,1.226,0,0,1-.25707-.18253.43237.43237,0,0,1-.112-.22581,2.06161,2.06161,0,0,1-.033-.4294c0-.12626.004-.23.01022-.315a1.00511,1.00511,0,0,1,.03959-.20732.22912.22912,0,0,1,.07445-.11174.16391.16391,0,0,1,.10581-.03331.514.514,0,0,1,.2406.09956,3.887,3.887,0,0,0,.39811.22177,3.54955,3.54955,0,0,0,.5784.22183,2.77588,2.77588,0,0,0,.78141.0995,1.82445,1.82445,0,0,0,.52237-.06851,1.19764,1.19764,0,0,0,.39187-.19906.82914.82914,0,0,0,.24486-.31508.98848.98848,0,0,0,.085-.41857.72953.72953,0,0,0-.14532-.45842,1.40122,1.40122,0,0,0-.37932-.33982,3.99754,3.99754,0,0,0-.53067-.28013c-.19906-.08694-.40433-.18025-.61367-.27553a5.64835,5.64835,0,0,1-.61361-.3318,2.54769,2.54769,0,0,1-.53291-.4436,2.10343,2.10343,0,0,1-.37937-.60948,2.20733,2.20733,0,0,1-.14527-.84594,2.24728,2.24728,0,0,1,.20956-.993,2.00842,2.00842,0,0,1,.56591-.70928A2.4001,2.4001,0,0,1,75.551,12.18a3.829,3.829,0,0,1,1.58168-.09754,3.7277,3.7277,0,0,1,.52265.11634,2.897,2.897,0,0,1,.43111.16378.97688.97688,0,0,1,.24884.1513.44362.44362,0,0,1,.083.10348.51078.51078,0,0,1,.035.112,1.142,1.142,0,0,1,.023.17622c.002.07053.004.15962.004.26542,0,.116-.002.21553-.00824.2966a1.12424,1.12424,0,0,1-.031.201.21256.21256,0,0,1-.06028.114.15014.15014,0,0,1-.10577.03729.51465.51465,0,0,1-.21332-.08505c-.09748-.056-.21581-.11805-.35884-.18454a3.10717,3.10717,0,0,0-.49139-.18228,2.11984,2.11984,0,0,0-.61364-.083,1.42107,1.42107,0,0,0-.45389.06423.91944.91944,0,0,0-.32556.17634.69788.69788,0,0,0-.1948.26959.90719.90719,0,0,0-.06429.33358.74.74,0,0,0,.143.45408,1.399,1.399,0,0,0,.3836.34012,3.78224,3.78224,0,0,0,.54317.27786c.20306.087.40833.18026.61991.27774a6.55663,6.55663,0,0,1,.61961.32966,2.518,2.518,0,0,1,.53918.4436,2.09219,2.09219,0,0,1,.3836.60739,2.13372,2.13372,0,0,1,.14506.82323Z"/><path class="cls-1" d="M86.44569,19.44461a2.22664,2.22664,0,0,1,.09126.34612.20982.20982,0,0,1-.04978.19079.3851.3851,0,0,1-.23625.07881c-.114.01022-.26959.01641-.46865.01641-.2053,0-.36716-.00392-.48316-.01017a1.33625,1.33625,0,0,1-.26331-.03527.24859.24859,0,0,1-.12852-.07678.46384.46384,0,0,1-.06-.12852l-.52859-1.57769H81.36637l-.49764,1.53618a.5.5,0,0,1-.0643.143.26337.26337,0,0,1-.12653.09129,1.00772,1.00772,0,0,1-.24883.0455q-.16164.01277-.42285.01243a4.01178,4.01178,0,0,1-.43733-.01843.324.324,0,0,1-.21782-.08928.23062.23062,0,0,1-.0435-.19679,2.08038,2.08038,0,0,1,.09126-.34012l2.42366-6.97235a.62835.62835,0,0,1,.085-.16777.31849.31849,0,0,1,.15528-.09754,1.306,1.306,0,0,1,.2946-.04151c.12426-.00625.29234-.01029.49736-.01029.23855,0,.4294.004.57244.01029a1.63,1.63,0,0,1,.32956.04151.31054.31054,0,0,1,.17007.10152.55111.55111,0,0,1,.089.18258l2.42991,6.96605ZM82.8362,13.6811H82.83L81.71865,17.021h2.22889L82.8362,13.6811Z"/><path class="cls-1" d="M93.28526,19.80316a.22959.22959,0,0,1-.0333.11811.25974.25974,0,0,1-.12852.08493,1.16421,1.16421,0,0,1-.259.05211,3.79994,3.79994,0,0,1-.41266.01843,3.61521,3.61521,0,0,1-.56814-.031.56566.56566,0,0,1-.24853-.09123.46694.46694,0,0,1-.1183-.145L89.1429,16.0797v3.72977a.18056.18056,0,0,1-.03726.11407.271.271,0,0,1-.12855.08266,1.07218,1.07218,0,0,1-.24253.05211,3.33593,3.33593,0,0,1-.38761.01843,3.38019,3.38019,0,0,1-.3859-.01843,1.08453,1.08453,0,0,1-.24651-.05211.29981.29981,0,0,1-.13057-.08266.17006.17006,0,0,1-.03952-.11407V12.40374a.17.17,0,0,1,.03952-.114.26561.26561,0,0,1,.13057-.0788,1.264,1.264,0,0,1,.24651-.04972,3.37678,3.37678,0,0,1,.3859-.01855,3.33221,3.33221,0,0,1,.38761.01855,1.25208,1.25208,0,0,1,.24253.04972.24243.24243,0,0,1,.12855.0788.18051.18051,0,0,1,.03726.114v3.34844l2.30139-3.34213a.40534.40534,0,0,1,.261-.2113,1.12438,1.12438,0,0,1,.24883-.04354c.10177-.00851.23032-.01255.38988-.01255a3.57222,3.57222,0,0,1,.4001.01855,1.14336,1.14336,0,0,1,.25077.052.26079.26079,0,0,1,.13081.08278.17165.17165,0,0,1,.03726.10776.48566.48566,0,0,1-.054.21357c-.03726.0728-.10581.18883-.2073.34637L90.7456,15.78745l2.35083,3.55343a2.34463,2.34463,0,0,1,.15981.33174.43477.43477,0,0,1,.029.13054Z"/><path class="cls-1" d="M100.78623,19.44461a2.23106,2.23106,0,0,1,.0913.34612.21.21,0,0,1-.04975.19079.38539.38539,0,0,1-.23635.07881c-.114.01022-.26959.01641-.46861.01641-.20534,0-.3671-.00392-.48313-.01017a1.33592,1.33592,0,0,1-.26332-.03527.249.249,0,0,1-.12855-.07678.463.463,0,0,1-.06-.12852l-.52862-1.57769H95.70688l-.49764,1.53618a.49828.49828,0,0,1-.06423.143.26371.26371,0,0,1-.12653.09129,1.00782,1.00782,0,0,1-.24884.0455q-.16168.01277-.42288.01243a4.01228,4.01228,0,0,1-.43733-.01843.32387.32387,0,0,1-.21782-.08928.23056.23056,0,0,1-.04353-.19679,2.08166,2.08166,0,0,1,.09132-.34012l2.4236-6.97235a.63013.63013,0,0,1,.08505-.16777.31867.31867,0,0,1,.15525-.09754,1.30653,1.30653,0,0,1,.2946-.04151c.12427-.00625.29234-.01029.49737-.01029.23861,0,.4294.004.5724.01029a1.63057,1.63057,0,0,1,.32963.04151.31009.31009,0,0,1,.17.10152.5511.5511,0,0,1,.089.18258l2.4299,6.96605ZM97.17681,13.6811h-.00628L96.05925,17.021h2.22884L97.17681,13.6811Z"/><path class="cls-1" d="M107.71707,19.83225a.2353.2353,0,0,1-.025.114.19948.19948,0,0,1-.116.07451,1.11286,1.11286,0,0,1-.2676.04354q-.174.01277-.47888.01243c-.17,0-.30679-.00392-.40634-.01243a.968.968,0,0,1-.2403-.0455.27866.27866,0,0,1-.12451-.085.51444.51444,0,0,1-.06233-.1243l-.70263-1.75593q-.12753-.29859-.24881-.5289a1.76922,1.76922,0,0,0-.27158-.38568,1.00779,1.00779,0,0,0-.34209-.234,1.20526,1.20526,0,0,0-.44985-.079h-.49767v2.99576a.17386.17386,0,0,1-.03922.10807.26753.26753,0,0,1-.13081.07874,1.29225,1.29225,0,0,1-.24458.04978,3.311,3.311,0,0,1-.38755.01843,3.37045,3.37045,0,0,1-.38562-.01843,1.25072,1.25072,0,0,1-.24682-.04978.2357.2357,0,0,1-.12656-.07874.1719.1719,0,0,1-.03726-.10807V12.68387a.48456.48456,0,0,1,.13679-.38563.49842.49842,0,0,1,.33811-.11829h2.03375q.311,0,.50989.01255c.1348.00821.25508.01843.36486.029a3.366,3.366,0,0,1,.85421.23206,2.05109,2.05109,0,0,1,.64269.42707,1.78944,1.78944,0,0,1,.40433.62626,2.28816,2.28816,0,0,1,.13878.82916,2.43692,2.43692,0,0,1-.0995.71944,1.84362,1.84362,0,0,1-.29436.5807,1.97485,1.97485,0,0,1-.48083.44355,2.59724,2.59724,0,0,1-.64891.30259,1.89429,1.89429,0,0,1,.33159.20732,1.77511,1.77511,0,0,1,.29032.29464,2.85569,2.85569,0,0,1,.25906.39382,5.12378,5.12378,0,0,1,.23628.50159l.66143,1.54867c.0623.15356.10155.26763.1223.33811a.63514.63514,0,0,1,.03126.16581Zm-2.06076-5.33251a1.15735,1.15735,0,0,0-.17631-.65515.94965.94965,0,0,0-.57644-.377,1.81574,1.81574,0,0,0-.27553-.04782,3.80106,3.80106,0,0,0-.4294-.01874h-.71519v2.22887h.8127a1.90048,1.90048,0,0,0,.5952-.083,1.159,1.159,0,0,0,.42487-.2301.9365.9365,0,0,0,.255-.35458,1.18517,1.18517,0,0,0,.08505-.46246Z"/><path class="cls-1" d="M115.30284,17.11226a3.66511,3.66511,0,0,1-.21356,1.29353,2.55859,2.55859,0,0,1-.6239.96608,2.73631,2.73631,0,0,1-1.022.60139,4.35574,4.35574,0,0,1-1.39538.205,4.40191,4.40191,0,0,1-1.33115-.18423,2.59971,2.59971,0,0,1-.997-.562,2.48543,2.48543,0,0,1-.62219-.93926,3.67,3.67,0,0,1-.21552-1.31435V12.3978a.1719.1719,0,0,1,.03726-.10807.23433.23433,0,0,1,.13081-.0788,1.34137,1.34137,0,0,1,.24455-.04972,3.37475,3.37475,0,0,1,.38982-.01855,3.242,3.242,0,0,1,.38136.01855,1.30677,1.30677,0,0,1,.24458.04972.268.268,0,0,1,.13079.0788.17392.17392,0,0,1,.03922.10807v4.64166a2.57252,2.57252,0,0,0,.11407.81074,1.506,1.506,0,0,0,.33183.56821,1.36084,1.36084,0,0,0,.51613.33578,1.92092,1.92092,0,0,0,.67168.11407,1.8585,1.8585,0,0,0,.67392-.11634,1.30613,1.30613,0,0,0,.50364-.3378,1.49067,1.49067,0,0,0,.31931-.54512,2.26714,2.26714,0,0,0,.11208-.73824v-4.733a.17187.17187,0,0,1,.03723-.10807.235.235,0,0,1,.12656-.0788,1.30113,1.30113,0,0,1,.24651-.04972,3.37392,3.37392,0,0,1,.38562-.01855,3.208,3.208,0,0,1,.37965.01855,1.28582,1.28582,0,0,1,.24026.04972.23484.23484,0,0,1,.12656.0788.17027.17027,0,0,1,.03726.10807v4.71446Z"/><path class="cls-1" d="M56.75708,31.86317a.164.164,0,0,1-.04151.10807A.24763.24763,0,0,1,56.585,32.05a1.23006,1.23006,0,0,1-.24256.04978,3.346,3.346,0,0,1-.38755.01849,3.39175,3.39175,0,0,1-.3859-.01849,1.24279,1.24279,0,0,1-.24654-.04978.26516.26516,0,0,1-.13054-.07874.16189.16189,0,0,1-.03949-.10807V24.43925a.16179.16179,0,0,1,.03949-.10807.26141.26141,0,0,1,.13449-.07874,1.314,1.314,0,0,1,.24489-.04978,4.02937,4.02937,0,0,1,.77115,0,1.25154,1.25154,0,0,1,.24256.04978.24763.24763,0,0,1,.13057.07874.16386.16386,0,0,1,.04151.10807v7.42392Z"/><path class="cls-1" d="M64.95049,31.52138a.64656.64656,0,0,1-.04776.2508.53877.53877,0,0,1-.13054.18032.51285.51285,0,0,1-.19507.10776.85471.85471,0,0,1-.22808.03325h-.67989a1.358,1.358,0,0,1-.36683-.04353.71447.71447,0,0,1-.28636-.15351,1.33071,1.33071,0,0,1-.25279-.30486,5.15588,5.15588,0,0,1-.27161-.49534l-1.957-3.67375c-.112-.21981-.22808-.45414-.34637-.70695-.116-.25306-.2218-.49963-.31506-.73818H59.8606q.0248.43552.03726.87068c.00628.29041.01056.589.01056.89578v4.11338a.18059.18059,0,0,1-.03331.10776.23958.23958,0,0,1-.114.08272.9116.9116,0,0,1-.22181.05205,2.86852,2.86852,0,0,1-.35859.01849,2.80849,2.80849,0,0,1-.35261-.01849.86528.86528,0,0,1-.21954-.05205.23026.23026,0,0,1-.10807-.08272.19333.19333,0,0,1-.031-.10776V24.79156a.53111.53111,0,0,1,.16807-.42713.60234.60234,0,0,1,.40834-.143h.85822a1.59221,1.59221,0,0,1,.38788.03955.81364.81364,0,0,1,.28181.13054.98807.98807,0,0,1,.23432.25276,3.12426,3.12426,0,0,1,.2238.39615L62.56411,27.914c.08925.174.17631.34606.26329.51408.087.16783.172.33584.25282.50361.08106.16807.15983.33388.23658.49565q.11472.24273.22383.48518h.00621c-.01252-.28411-.02075-.57844-.027-.88728-.00631-.30682-.0083-.60139-.0083-.87925v-3.6882a.19239.19239,0,0,1,.03527-.10978.31906.31906,0,0,1,.12231-.085.78263.78263,0,0,1,.22376-.04984,3.31786,3.31786,0,0,1,.35889-.01647,3.14322,3.14322,0,0,1,.3461.01647.67206.67206,0,0,1,.2155.04984.23626.23626,0,0,1,.1058.085.20431.20431,0,0,1,.03129.10978v7.06364Z"/><path class="cls-1" d="M71.32142,29.72388a2.44686,2.44686,0,0,1-.23,1.08829,2.241,2.241,0,0,1-.62619.77944,2.70812,2.70812,0,0,1-.92248.47061,4.21773,4.21773,0,0,1-1.88675.09129,4.24835,4.24835,0,0,1-.61566-.1595,2.72974,2.72974,0,0,1-.44789-.199,1.224,1.224,0,0,1-.257-.18265.4313.4313,0,0,1-.112-.22569,2.06308,2.06308,0,0,1-.033-.4294c0-.12626.004-.2301.01023-.31509a1.00476,1.00476,0,0,1,.03955-.20732.22964.22964,0,0,1,.07448-.11174.16419.16419,0,0,1,.10578-.03331.51383.51383,0,0,1,.2406.09956,3.88923,3.88923,0,0,0,.39811.22183,3.55528,3.55528,0,0,0,.5784.22177,2.77618,2.77618,0,0,0,.78141.0995,1.82663,1.82663,0,0,0,.52237-.06851,1.19518,1.19518,0,0,0,.3919-.19906.82985.82985,0,0,0,.24483-.31509.98822.98822,0,0,0,.085-.41856.72982.72982,0,0,0-.14532-.45848,1.4016,1.4016,0,0,0-.37938-.3397,3.98659,3.98659,0,0,0-.53061-.28012c-.19906-.087-.40436-.18032-.61364-.27554a5.625,5.625,0,0,1-.61367-.33192,2.5466,2.5466,0,0,1-.53291-.44354,2.10456,2.10456,0,0,1-.37937-.60942,2.2079,2.2079,0,0,1-.14527-.846,2.24752,2.24752,0,0,1,.20959-.993,2.00819,2.00819,0,0,1,.56588-.70921,2.39831,2.39831,0,0,1,.8377-.42285,3.826,3.826,0,0,1,1.58168-.09754,3.72961,3.72961,0,0,1,.52265.11634,2.90492,2.90492,0,0,1,.43111.16378.97564.97564,0,0,1,.24878.1513.44477.44477,0,0,1,.08309.10348.51281.51281,0,0,1,.035.112,1.14586,1.14586,0,0,1,.023.17634c.002.07047.004.15944.004.26524,0,.11609-.002.21559-.00827.29666a1.12335,1.12335,0,0,1-.031.201.21278.21278,0,0,1-.06031.11407.15017.15017,0,0,1-.10577.03723.51449.51449,0,0,1-.21326-.08505c-.09754-.056-.21584-.118-.35884-.18454a3.12,3.12,0,0,0-.49139-.18234,2.12152,2.12152,0,0,0-.61367-.083,1.419,1.419,0,0,0-.45383.06429.91965.91965,0,0,0-.32562.17628.69767.69767,0,0,0-.19477.26959.90658.90658,0,0,0-.06429.33358.73984.73984,0,0,0,.14306.45414,1.399,1.399,0,0,0,.38357.34006,3.77833,3.77833,0,0,0,.54314.27786c.20306.087.40836.18026.61994.2778a6.556,6.556,0,0,1,.61961.3296,2.51931,2.51931,0,0,1,.53915.4436,2.09143,2.09143,0,0,1,.3836.60739,2.13372,2.13372,0,0,1,.14506.82323Z"/><path class="cls-1" d="M77.65083,24.87661a2.41547,2.41547,0,0,1-.01647.30051.79823.79823,0,0,1-.04553.20108.27854.27854,0,0,1-.07476.112.15848.15848,0,0,1-.10155.03729H75.445v6.33563a.163.163,0,0,1-.03928.10807.26686.26686,0,0,1-.13082.07874,1.2415,1.2415,0,0,1-.24651.04978,3.3411,3.3411,0,0,1-.38559.01849,3.38282,3.38282,0,0,1-.38562-.01849,1.25325,1.25325,0,0,1-.24482-.04978.24884.24884,0,0,1-.13054-.07874.16185.16185,0,0,1-.0395-.10807V25.52754H71.87281a.14714.14714,0,0,1-.10151-.03729.2774.2774,0,0,1-.07452-.112.91112.91112,0,0,1-.0458-.20108c-.0082-.083-.01451-.18221-.01451-.30051,0-.12031.00631-.22385.01451-.30884a.90931.90931,0,0,1,.0458-.20334.25469.25469,0,0,1,.07452-.10972.15406.15406,0,0,1,.10151-.03331h5.53971a.16585.16585,0,0,1,.10155.03331.25568.25568,0,0,1,.07476.10972.79887.79887,0,0,1,.04553.20334,2.56248,2.56248,0,0,1,.01647.30884Z"/><path class="cls-1" d="M80.18452,31.86317a.16383.16383,0,0,1-.04151.10807.24765.24765,0,0,1-.13054.07874,1.2299,1.2299,0,0,1-.24256.04978,3.34658,3.34658,0,0,1-.38758.01849,3.39213,3.39213,0,0,1-.3859-.01849,1.243,1.243,0,0,1-.24651-.04978.26513.26513,0,0,1-.13057-.07874.16192.16192,0,0,1-.03952-.10807V24.43925a.16182.16182,0,0,1,.03952-.10807.26138.26138,0,0,1,.13452-.07874,1.31413,1.31413,0,0,1,.24486-.04978,4.02968,4.02968,0,0,1,.77118,0,1.25137,1.25137,0,0,1,.24256.04978.24765.24765,0,0,1,.13054.07874.16371.16371,0,0,1,.04151.10807v7.42392Z"/><path class="cls-1" d="M87.1276,24.87661a2.41547,2.41547,0,0,1-.01647.30051.79872.79872,0,0,1-.04552.20108.27837.27837,0,0,1-.07479.112.15838.15838,0,0,1-.10152.03729H84.92179v6.33563a.16291.16291,0,0,1-.03928.10807.267.267,0,0,1-.13081.07874,1.24227,1.24227,0,0,1-.24651.04978,3.34134,3.34134,0,0,1-.38559.01849,3.38383,3.38383,0,0,1-.38566-.01849,1.25336,1.25336,0,0,1-.24479-.04978.24892.24892,0,0,1-.13054-.07874.16189.16189,0,0,1-.03949-.10807V25.52754H81.34959a.14715.14715,0,0,1-.10152-.03729.27753.27753,0,0,1-.07455-.112.91024.91024,0,0,1-.04576-.20108c-.00824-.083-.01452-.18221-.01452-.30051,0-.12031.00628-.22385.01452-.30884a.90847.90847,0,0,1,.04576-.20334.2548.2548,0,0,1,.07455-.10972.15407.15407,0,0,1,.10152-.03331H86.8893a.16574.16574,0,0,1,.10152.03331.25554.25554,0,0,1,.07479.10972.79935.79935,0,0,1,.04552.20334,2.56248,2.56248,0,0,1,.01647.30884Z"/><path class="cls-1" d="M94.471,29.15371a3.665,3.665,0,0,1-.21354,1.29359,2.55785,2.55785,0,0,1-.62389.966,2.73381,2.73381,0,0,1-1.022.6014,4.35578,4.35578,0,0,1-1.39538.205,4.40147,4.40147,0,0,1-1.33112-.18423,2.5974,2.5974,0,0,1-.997-.5619,2.48655,2.48655,0,0,1-.62224-.93932A3.67,3.67,0,0,1,88.05039,29.22V24.43925a.17192.17192,0,0,1,.03722-.10807.23425.23425,0,0,1,.13082-.07874,1.34075,1.34075,0,0,1,.24452-.04978,3.37784,3.37784,0,0,1,.38991-.01849,3.24393,3.24393,0,0,1,.38133.01849,1.3058,1.3058,0,0,1,.24455.04978.26761.26761,0,0,1,.13082.07874.17388.17388,0,0,1,.03918.10807V29.081a2.57242,2.57242,0,0,0,.11407.81068,1.50487,1.50487,0,0,0,.33183.5682,1.36193,1.36193,0,0,0,.51617.33585,1.92077,1.92077,0,0,0,.67165.11394,1.85744,1.85744,0,0,0,.674-.11627,1.30564,1.30564,0,0,0,.50358-.3378,1.49028,1.49028,0,0,0,.3194-.54519,2.26831,2.26831,0,0,0,.112-.73817v-4.733a.172.172,0,0,1,.03723-.10807.23447.23447,0,0,1,.12653-.07874,1.30218,1.30218,0,0,1,.2466-.04978,3.37431,3.37431,0,0,1,.38559-.01849,3.20851,3.20851,0,0,1,.37962.01849,1.28616,1.28616,0,0,1,.24029.04978.23451.23451,0,0,1,.12653.07874.17013.17013,0,0,1,.03723.10807v4.71446Zm-1.41586-6.8873a.20344.20344,0,0,1,.11208.029.22614.22614,0,0,1,.0765.09527.529.529,0,0,1,.04347.1723c.00628.07249.01054.16152.01054.26732s-.00426.19275-.01054.26531a.559.559,0,0,1-.04347.17205.18651.18651,0,0,1-.0765.09326.20456.20456,0,0,1-.11208.02926h-3.5824a.251.251,0,0,1-.12457-.02926.17475.17475,0,0,1-.08275-.09326.62653.62653,0,0,1-.0458-.17205,1.943,1.943,0,0,1-.01448-.26531,1.92362,1.92362,0,0,1,.01448-.26132.658.658,0,0,1,.0458-.176.21359.21359,0,0,1,.08275-.09753.24963.24963,0,0,1,.12457-.029Z"/><path class="cls-1" d="M101.40817,24.87661a2.40263,2.40263,0,0,1-.01653.30051.79638.79638,0,0,1-.04546.20108.27858.27858,0,0,1-.0748.112.1584.1584,0,0,1-.10151.03729H99.20233v6.33563a.16275.16275,0,0,1-.03928.10807.267.267,0,0,1-.13079.07874,1.2419,1.2419,0,0,1-.24653.04978,3.341,3.341,0,0,1-.3856.01849,3.38356,3.38356,0,0,1-.38562-.01849,1.25336,1.25336,0,0,1-.24479-.04978.249.249,0,0,1-.13057-.07874.16209.16209,0,0,1-.03953-.10807V25.52754H95.63013a.1472.1472,0,0,1-.10152-.03729.27781.27781,0,0,1-.07452-.112.909.909,0,0,1-.04577-.20108c-.00823-.083-.01451-.18221-.01451-.30051,0-.12031.00628-.22385.01451-.30884a.90729.90729,0,0,1,.04577-.20334.255.255,0,0,1,.07452-.10972.15413.15413,0,0,1,.10152-.03331h5.53974a.16576.16576,0,0,1,.10151.03331.25572.25572,0,0,1,.0748.10972.79707.79707,0,0,1,.04546.20334,2.54883,2.54883,0,0,1,.01653.30884Z"/><path class="cls-1" d="M106.93566,29.72388a2.44727,2.44727,0,0,1-.23,1.08829,2.24129,2.24129,0,0,1-.6262.77944,2.708,2.708,0,0,1-.92247.47061,4.218,4.218,0,0,1-1.88681.09129,4.24891,4.24891,0,0,1-.61563-.1595,2.73008,2.73008,0,0,1-.44786-.199,1.22351,1.22351,0,0,1-.25707-.18265.43219.43219,0,0,1-.112-.22569,2.06238,2.06238,0,0,1-.033-.4294c0-.12626.004-.2301.01022-.31509a1.01166,1.01166,0,0,1,.03953-.20732.2297.2297,0,0,1,.07454-.11174.16407.16407,0,0,1,.10581-.03331.514.514,0,0,1,.24057.09956,3.88166,3.88166,0,0,0,.39811.22183,3.55528,3.55528,0,0,0,.5784.22177,2.776,2.776,0,0,0,.78144.0995,1.82685,1.82685,0,0,0,.52234-.06851,1.19582,1.19582,0,0,0,.39187-.19906.8299.8299,0,0,0,.24485-.31509.98852.98852,0,0,0,.085-.41856.72977.72977,0,0,0-.14533-.45848,1.40037,1.40037,0,0,0-.37934-.3397,3.987,3.987,0,0,0-.53064-.28012c-.199-.087-.40433-.18032-.61367-.27554a5.6301,5.6301,0,0,1-.61364-.33192,2.54541,2.54541,0,0,1-.53288-.44354,2.10192,2.10192,0,0,1-.37934-.60942,2.20728,2.20728,0,0,1-.14533-.846,2.24738,2.24738,0,0,1,.20959-.993,2.00853,2.00853,0,0,1,.56584-.70921,2.39911,2.39911,0,0,1,.83774-.42285,3.826,3.826,0,0,1,1.58167-.09754,3.72848,3.72848,0,0,1,.52266.11634,2.90364,2.90364,0,0,1,.43111.16378.97688.97688,0,0,1,.24884.1513.44465.44465,0,0,1,.083.10348.51064.51064,0,0,1,.035.112,1.14039,1.14039,0,0,1,.02306.17634c.002.07047.004.15944.004.26524,0,.11609-.002.21559-.00824.29666a1.127,1.127,0,0,1-.031.201.21317.21317,0,0,1-.06028.11407.15039.15039,0,0,1-.10577.03723.51473.51473,0,0,1-.21333-.08505c-.0975-.056-.2158-.118-.35883-.18454a3.11861,3.11861,0,0,0-.4914-.18234,2.12153,2.12153,0,0,0-.61363-.083,1.41911,1.41911,0,0,0-.4539.06429.91966.91966,0,0,0-.32555.17628.69713.69713,0,0,0-.1948.26959.90758.90758,0,0,0-.06426.33358.73979.73979,0,0,0,.143.45414,1.39987,1.39987,0,0,0,.3836.34006,3.77535,3.77535,0,0,0,.54319.27786c.203.087.40831.18026.61989.2778a6.56381,6.56381,0,0,1,.61964.3296,2.51767,2.51767,0,0,1,.53912.4436,2.09193,2.09193,0,0,1,.38363.60739,2.13447,2.13447,0,0,1,.145.82323Z"/></svg>