<svg id="Layer_1" data-name="Layer 1" xmlns="http://www.w3.org/2000/svg" viewBox="0 0 123.556 50"><defs><style>.cls-1{fill:#fff;}.cls-2{fill:#134874;}</style></defs><title>TSI_logo_RU_white</title><path class="cls-1" d="M5.96691,0S0,0,0,6.05735V44.03309S0,50,5.96691,50H43.94066s6.05819,0,6.05819-5.96691V6.05735S49.99885,0,43.94066,0Z"/><polygon class="cls-2" points="13.562 32.188 16.817 32.188 16.817 20.614 20.704 20.614 20.704 17.903 9.765 17.903 9.765 20.614 13.562 20.614 13.562 32.188 13.562 32.188"/><path class="cls-2" d="M22.78421,31.28313a9.50158,9.50158,0,0,0,3.7969.81558c3.61856,0,5.24487-1.99033,5.24487-4.25161,0-1.897-1.08571-3.16308-3.34473-4.06683-1.71846-.72337-2.44273-1.08652-2.44273-1.99052,0-.633.54259-1.266,1.89986-1.266a5.96481,5.96481,0,0,1,2.71176.633l.633-2.53007a7.50386,7.50386,0,0,0-3.34475-.63379c-3.0746,0-4.97276,1.71841-4.97276,4.06872,0,1.98862,1.44575,3.25547,3.61549,4.06817,1.62828.633,2.26128,1.08432,2.26128,1.8999,0,.904-.72343,1.537-2.0796,1.537a6.96212,6.96212,0,0,1-3.34472-.90486l-.63386,2.62131Z"/><polygon class="cls-2" points="35.805 32.189 39.059 32.189 39.059 17.902 35.805 17.902 35.805 32.189 35.805 32.189"/><path class="cls-1" d="M61.549,7.78091a.15689.15689,0,0,1-.03952.10776.29861.29861,0,0,1-.13053.07476,1.16746,1.16746,0,0,1-.24683.0455c-.10152.01028-.23006.01653-.38561.01653-.15327,0-.28181-.00625-.38561-.01653a1.09611,1.09611,0,0,1-.24256-.0455.2712.2712,0,0,1-.12427-.07476.165.165,0,0,1-.03726-.10776V3.63846c0-.15748.002-.31307.006-.46437q.00643-.22684.01877-.40436h-.01251c-.031.05829-.07052.12259-.114.19906q-.06825.11223-.143.23635c-.05174.083-.1035.168-.16153.255-.056.08707-.112.1701-.17.25086L56.648,7.78715a.83419.83419,0,0,1-.10181.116.34452.34452,0,0,1-.13252.07679.968.968,0,0,1-.20105.03526c-.07876.00619-.18058.01023-.30684.01023a3.72675,3.72675,0,0,1-.38161-.01653.96839.96839,0,0,1-.22807-.0455.20642.20642,0,0,1-.112-.079.203.203,0,0,1-.031-.114V.33585a.15692.15692,0,0,1,.03954-.10777.28782.28782,0,0,1,.13452-.07452,1.18715,1.18715,0,0,1,.24483-.0458c.10152-.01022.23006-.01647.38361-.01647.15754,0,.28608.00625.3876.01647a1.13622,1.13622,0,0,1,.24257.0458.26531.26531,0,0,1,.12853.07452.16651.16651,0,0,1,.03725.10777V4.501c0,.13048-.002.26757-.00626.41458-.004.1453-.01022.28607-.01847.42512H56.739c.06851-.12227.15554-.26757.26133-.43767.10579-.16973.21355-.33578.32759-.49957L60.06038.32954a.80324.80324,0,0,1,.09126-.10777.4337.4337,0,0,1,.13053-.07445A.82384.82384,0,0,1,60.4855.10378a3.08753,3.08753,0,0,1,.31081-.01249,3.60078,3.60078,0,0,1,.37338.01647,1.03392,1.03392,0,0,1,.22807.0458.24649.24649,0,0,1,.118.07452.186.186,0,0,1,.03327.114V7.78091Z"/><path class="cls-1" d="M69.3962,7.77038a.16314.16314,0,0,1-.03925.10807.26814.26814,0,0,1-.1308.07874,1.22374,1.22374,0,0,1-.24258.04978,3.28055,3.28055,0,0,1-.38333.01849,3.43548,3.43548,0,0,1-.39185-.01849,1.19312,1.19312,0,0,1-.24256-.04978.25191.25191,0,0,1-.12654-.07874.16191.16191,0,0,1-.03955-.10807V4.59224h-2.9398V7.77038a.17212.17212,0,0,1-.03724.10807.24293.24293,0,0,1-.12852.07874,1.2333,1.2333,0,0,1-.2426.04978,3.33326,3.33326,0,0,1-.38758.01849,3.37755,3.37755,0,0,1-.38589-.01849,1.24581,1.24581,0,0,1-.24655-.04978.26582.26582,0,0,1-.13052-.07874.162.162,0,0,1-.03953-.10807V.34638A.16176.16176,0,0,1,63.301.23831.26537.26537,0,0,1,63.43156.1595a1.26941,1.26941,0,0,1,.24655-.04971A3.375,3.375,0,0,1,64.064.09129a3.33072,3.33072,0,0,1,.38758.0185,1.2571,1.2571,0,0,1,.2426.04971.24256.24256,0,0,1,.12852.07881.17186.17186,0,0,1,.03724.10807V3.23214h2.9398V.34638a.16168.16168,0,0,1,.03955-.10807A.2515.2515,0,0,1,67.96583.1595a1.21545,1.21545,0,0,1,.24256-.04971,3.43286,3.43286,0,0,1,.39185-.0185,3.278,3.278,0,0,1,.38333.0185,1.24718,1.24718,0,0,1,.24258.04971.26768.26768,0,0,1,.1308.07881.1629.1629,0,0,1,.03925.10807v7.424Z"/><path class="cls-1" d="M76.54468,6.79811c0,.10152-.002.18656-.00826.257a1.56344,1.56344,0,0,1-.027.18259.48029.48029,0,0,1-.04978.13054.58258.58258,0,0,1-.09725.12454,1.26563,1.26563,0,0,1-.25705.18026,3.061,3.061,0,0,1-.46866.20935,3.97558,3.97558,0,0,1-.63244.16568,4.34623,4.34623,0,0,1-2.2246-.18222,2.86987,2.86987,0,0,1-1.10506-.74222,3.32131,3.32131,0,0,1-.6987-1.23783,5.54468,5.54468,0,0,1-.24455-1.725,5.458,5.458,0,0,1,.26757-1.77873,3.68931,3.68931,0,0,1,.74846-1.3061A3.12,3.12,0,0,1,72.89792.27358,3.88067,3.88067,0,0,1,74.37609,0a3.48206,3.48206,0,0,1,.63241.056,3.5533,3.5533,0,0,1,.56192.143,2.76281,2.76281,0,0,1,.46437.203,1.41993,1.41993,0,0,1,.28806.197.56408.56408,0,0,1,.112.13679A.51683.51683,0,0,1,76.48466.875a1.62583,1.62583,0,0,1,.027.20108c.006.07679.00823.17206.00823.28607,0,.12019-.00425.22379-.0105.30884a.79612.79612,0,0,1-.04352.20727.269.269,0,0,1-.07251.114.143.143,0,0,1-.09755.03759.42263.42263,0,0,1-.23-.1058,3.71705,3.71705,0,0,0-.36287-.23862,2.91427,2.91427,0,0,0-.52663-.23628,2.265,2.265,0,0,0-.734-.10575,1.727,1.727,0,0,0-1.45936.73819,2.55453,2.55453,0,0,0-.39188.85826,4.4431,4.4431,0,0,0-.13479,1.1363,4.45523,4.45523,0,0,0,.14305,1.20023,2.33313,2.33313,0,0,0,.40834.83554,1.66563,1.66563,0,0,0,.6367.48941,2.14076,2.14076,0,0,0,.84174.15951,2.39926,2.39926,0,0,0,.73365-.0995,3.02157,3.02157,0,0,0,.53293-.22178,4.1771,4.1771,0,0,0,.36484-.21981.44667.44667,0,0,1,.22181-.09534.16387.16387,0,0,1,.09555.02278.18863.18863,0,0,1,.062.09754.9447.9447,0,0,1,.03526.203c.00856.08707.01254.2034.01254.35042Z"/><path class="cls-1" d="M82.92391.78374a2.412,2.412,0,0,1-.0165.30052.79613.79613,0,0,1-.04549.201.27822.27822,0,0,1-.07479.11211.15865.15865,0,0,1-.10152.03723H80.71806V7.77038a.16323.16323,0,0,1-.03923.10807.26826.26826,0,0,1-.13082.07874,1.24593,1.24593,0,0,1-.24656.04978,3.3266,3.3266,0,0,1-.38557.01849,3.369,3.369,0,0,1-.38563-.01849,1.256,1.256,0,0,1-.24483-.04978.24948.24948,0,0,1-.13054-.07874.162.162,0,0,1-.03952-.10807V1.43462H77.14584a.14748.14748,0,0,1-.10155-.03723.27794.27794,0,0,1-.07449-.11211.90777.90777,0,0,1-.04578-.201c-.00826-.083-.0145-.18222-.0145-.30052,0-.12031.00624-.22385.0145-.30884A.906.906,0,0,1,76.9698.27155a.25485.25485,0,0,1,.07449-.10978.15442.15442,0,0,1,.10155-.03325h5.53977a.166.166,0,0,1,.10152.03325.25512.25512,0,0,1,.07479.10978.79683.79683,0,0,1,.04549.20335,2.55769,2.55769,0,0,1,.0165.30884Z"/><path class="cls-1" d="M90.249,7.78091a.1569.1569,0,0,1-.03953.10776.29847.29847,0,0,1-.13054.07476,1.16709,1.16709,0,0,1-.24682.0455c-.10153.01028-.23005.01653-.38561.01653-.15327,0-.28179-.00625-.38559-.01653a1.09609,1.09609,0,0,1-.24258-.0455.271.271,0,0,1-.12427-.07476.16509.16509,0,0,1-.03726-.10776V3.63846c0-.15748.002-.31307.006-.46437q.00636-.22684.01873-.40436H88.669c-.031.05829-.07054.12259-.114.19906q-.06824.11223-.143.23635c-.05176.083-.10351.168-.16153.255-.056.08707-.112.1701-.17.25086L85.34788,7.78715a.83422.83422,0,0,1-.10182.116.34459.34459,0,0,1-.1325.07679.9682.9682,0,0,1-.20105.03526c-.07879.00619-.18058.01023-.30684.01023a3.72675,3.72675,0,0,1-.38163-.01653.968.968,0,0,1-.228-.0455.20644.20644,0,0,1-.11205-.079.203.203,0,0,1-.031-.114V.33585a.15707.15707,0,0,1,.0395-.10777A.28794.28794,0,0,1,84.027.15356a1.18736,1.18736,0,0,1,.24486-.0458c.1015-.01022.23-.01647.3836-.01647.15755,0,.28607.00625.38759.01647a1.13633,1.13633,0,0,1,.24258.0458.26521.26521,0,0,1,.12853.07452.16657.16657,0,0,1,.03725.10777V4.501c0,.13048-.002.26757-.00626.41458-.004.1453-.01023.28607-.01848.42512h.01223c.06855-.12227.15555-.26757.26133-.43767.1058-.16973.21355-.33578.32759-.49957L88.76028.32954a.80267.80267,0,0,1,.0913-.10777A.43376.43376,0,0,1,88.9821.14732a.82447.82447,0,0,1,.20332-.04354,3.08775,3.08775,0,0,1,.31082-.01249,3.60106,3.60106,0,0,1,.37338.01647,1.03415,1.03415,0,0,1,.22808.0458.24683.24683,0,0,1,.118.07452.18622.18622,0,0,1,.03325.114V7.78091Z"/><path class="cls-1" d="M97.19211.78374a2.41217,2.41217,0,0,1-.01649.30052.79613.79613,0,0,1-.04549.201.27822.27822,0,0,1-.07479.11211.15865.15865,0,0,1-.10152.03723H94.98627V7.77038a.16318.16318,0,0,1-.03924.10807.26822.26822,0,0,1-.13081.07874,1.24612,1.24612,0,0,1-.24655.04978,3.32723,3.32723,0,0,1-.38561.01849,3.36848,3.36848,0,0,1-.3856-.01849,1.25635,1.25635,0,0,1-.24483-.04978.24956.24956,0,0,1-.13054-.07874.162.162,0,0,1-.03952-.10807V1.43462H91.41405a.14751.14751,0,0,1-.10154-.03723.27787.27787,0,0,1-.07453-.11211.91011.91011,0,0,1-.04577-.201c-.00825-.083-.01449-.18222-.01449-.30052,0-.12031.00624-.22385.01449-.30884A.90826.90826,0,0,1,91.238.27155a.2548.2548,0,0,1,.07453-.10978.15445.15445,0,0,1,.10154-.03325h5.53977a.166.166,0,0,1,.10152.03325.25512.25512,0,0,1,.07479.10978.79683.79683,0,0,1,.04549.20335,2.55792,2.55792,0,0,1,.01649.30884Z"/><path class="cls-1" d="M101.99,5.81959a8.22009,8.22009,0,0,1-.52665,1.12382,2.7577,2.7577,0,0,1-.55138.70071,1.66169,1.66169,0,0,1-.645.35856,2.821,2.821,0,0,1-.79821.10152,2.35653,2.35653,0,0,1-.32133-.02272,2.5269,2.5269,0,0,1-.29859-.056,1.52938,1.52938,0,0,1-.24256-.08505.74412.74412,0,0,1-.1513-.091.34191.34191,0,0,1-.07678-.09552.50758.50758,0,0,1-.04549-.13678,1.54923,1.54923,0,0,1-.027-.21559c-.00627-.087-.00825-.19508-.00825-.3236a1.66842,1.66842,0,0,1,.05176-.5016c.03328-.09956.08731-.14934.15981-.14934a.23075.23075,0,0,1,.12227.04354c.04352.027.09754.058.15954.09129a1.77075,1.77075,0,0,0,.21981.087,1.08607,1.08607,0,0,0,.53093.01249.55061.55061,0,0,0,.20729-.10574,1.11894,1.11894,0,0,0,.19479-.22184,2.786,2.786,0,0,0,.20532-.3754L97.56151.69245A1.13906,1.13906,0,0,1,97.462.38563.198.198,0,0,1,97.52.201.438.438,0,0,1,97.76456.114a3.91685,3.91685,0,0,1,.46465-.02266c.19053,0,.34209.004.45611.01249a.95732.95732,0,0,1,.27359.05174.32969.32969,0,0,1,.15753.116,1.10384,1.10384,0,0,1,.10976.1971l1.10506,2.37989c.12229.257.23632.5101.34638.76286.10975.25318.21552.51017.31508.76929h.01874c.08079-.27155.16779-.53686.25906-.794.0913-.257.19083-.52658.30058-.81068l.904-2.41742a.43355.43355,0,0,1,.07876-.13679.35412.35412,0,0,1,.1473-.08076,1.1102,1.1102,0,0,1,.26733-.03949c.112-.00625.26131-.01023.44162-.01023a4.16261,4.16261,0,0,1,.4436.0185.52515.52515,0,0,1,.23859.07041.15211.15211,0,0,1,.06625.14309.87742.87742,0,0,1-.06227.2366L101.99,5.81959Z"/><path class="cls-1" d="M110.29327.78374a2.41431,2.41431,0,0,1-.01648.30052.79686.79686,0,0,1-.04552.201.27821.27821,0,0,1-.07478.11211.15865.15865,0,0,1-.10153.03723h-1.96755V7.77038a.16312.16312,0,0,1-.03923.10807.268.268,0,0,1-.13082.07874,1.24553,1.24553,0,0,1-.24654.04978,3.327,3.327,0,0,1-.38559.01849,3.36879,3.36879,0,0,1-.38561-.01849,1.25627,1.25627,0,0,1-.24485-.04978.24953.24953,0,0,1-.13052-.07874.16192.16192,0,0,1-.03951-.10807V1.43462h-1.96955a.14751.14751,0,0,1-.10154-.03723.27772.27772,0,0,1-.07447-.11211.90708.90708,0,0,1-.0458-.201c-.00823-.083-.01451-.18222-.01451-.30052,0-.12031.00628-.22385.01451-.30884a.90529.90529,0,0,1,.0458-.20335.25466.25466,0,0,1,.07447-.10978.15445.15445,0,0,1,.10154-.03325H110.055a.166.166,0,0,1,.10153.03325.25511.25511,0,0,1,.07478.10978.79754.79754,0,0,1,.04552.20335,2.5602,2.5602,0,0,1,.01648.30884Z"/><path class="cls-1" d="M60.3837,12.825a2.41106,2.41106,0,0,1-.0165.30058.7972.7972,0,0,1-.04549.201.2785.2785,0,0,1-.0748.112.15832.15832,0,0,1-.10151.03729H58.17785V19.8116a.16316.16316,0,0,1-.03923.10813.26832.26832,0,0,1-.13081.0788,1.2432,1.2432,0,0,1-.24657.04966,3.3096,3.3096,0,0,1-.38561.01855,3.35084,3.35084,0,0,1-.38559-.01855,1.25344,1.25344,0,0,1-.24485-.04966.24953.24953,0,0,1-.13052-.0788.16188.16188,0,0,1-.03953-.10813V13.476H54.60559a.14712.14712,0,0,1-.10149-.03729.27792.27792,0,0,1-.07451-.112.9096.9096,0,0,1-.0458-.201c-.00822-.083-.01448-.18228-.01448-.30058,0-.12025.00626-.22379.01448-.30884a.907.907,0,0,1,.0458-.20328.25473.25473,0,0,1,.07451-.10979.15368.15368,0,0,1,.10149-.03325H60.1454a.16523.16523,0,0,1,.10151.03325.25526.25526,0,0,1,.0748.10979.79724.79724,0,0,1,.04549.20328,2.55708,2.55708,0,0,1,.0165.30884Z"/><path class="cls-1" d="M66.695,14.55624a3.08912,3.08912,0,0,1-.20728,1.17334,2.244,2.244,0,0,1-.60146.8582,2.64979,2.64979,0,0,1-.968.53289,4.52629,4.52629,0,0,1-1.35191.18258h-.65519V19.8116a.17413.17413,0,0,1-.03921.10813.26835.26835,0,0,1-.13082.0788,1.28242,1.28242,0,0,1-.24458.04966,3.29227,3.29227,0,0,1-.38759.01855,3.3511,3.3511,0,0,1-.38561-.01855,1.24207,1.24207,0,0,1-.24682-.04966.23641.23641,0,0,1-.12656-.0788.17216.17216,0,0,1-.03724-.10813V12.74a.56658.56658,0,0,1,.14929-.42708.543.543,0,0,1,.39186-.143h1.85127c.18679,0,.36511.00625.53288.0207a5.91289,5.91289,0,0,1,.60345.09123,2.65076,2.65076,0,0,1,.71318.25913,2.07975,2.07975,0,0,1,.61765.47686,1.97453,1.97453,0,0,1,.38788.67371,2.63181,2.63181,0,0,1,.13478.86475Zm-1.67124.116a1.40516,1.40516,0,0,0-.145-.68,1.02069,1.02069,0,0,0-.35859-.3961,1.18888,1.18888,0,0,0-.44591-.1595,3.32311,3.32311,0,0,0-.48313-.03325h-.67993v2.6662h.7152a1.739,1.739,0,0,0,.64068-.10379,1.11157,1.11157,0,0,0,.42314-.288,1.23778,1.23778,0,0,0,.24853-.44368,1.8032,1.8032,0,0,0,.085-.5619Z"/><path class="cls-1" d="M73.67964,19.4346a2.23244,2.23244,0,0,1,.09128.346.21.21,0,0,1-.04975.19092.38569.38569,0,0,1-.23631.07874c-.114.01023-.2696.01647-.46864.01647-.20532,0-.36712-.004-.48315-.01022a1.3327,1.3327,0,0,1-.26334-.03527.24818.24818,0,0,1-.12852-.07679.46363.46363,0,0,1-.06-.12858l-.52865-1.57759H68.60024l-.49764,1.53614a.49742.49742,0,0,1-.06426.143.26323.26323,0,0,1-.12655.09136,1.00789,1.00789,0,0,1-.24882.04549q-.16167.01277-.42286.01249a3.98946,3.98946,0,0,1-.43736-.01855.32344.32344,0,0,1-.21783-.08921.23074.23074,0,0,1-.0435-.1968,2.08348,2.08348,0,0,1,.09128-.34013l2.42369-6.97237a.6294.6294,0,0,1,.085-.16789.31871.31871,0,0,1,.15528-.09748,1.314,1.314,0,0,1,.29461-.04151c.12423-.00625.29231-.01023.49734-.01023.23858,0,.42938.004.57242.01023a1.64063,1.64063,0,0,1,.32961.04151.31026.31026,0,0,1,.17005.10152.55264.55264,0,0,1,.089.18259l2.42992,6.96618ZM70.07016,13.671H70.0639l-1.11132,3.3399h2.22889L70.07016,13.671Z"/><path class="cls-1" d="M80.91314,19.8116a.16316.16316,0,0,1-.03923.10813.26835.26835,0,0,1-.13082.0788,1.22086,1.22086,0,0,1-.24258.04966,3.26339,3.26339,0,0,1-.38331.01855,3.41765,3.41765,0,0,1-.39187-.01855,1.19029,1.19029,0,0,1-.24256-.04966.25191.25191,0,0,1-.12654-.0788.16182.16182,0,0,1-.03952-.10813v-3.178H76.37688v3.178a.172.172,0,0,1-.03724.10813.243.243,0,0,1-.12854.0788,1.22988,1.22988,0,0,1-.24256.04966,3.31675,3.31675,0,0,1-.38762.01855,3.35955,3.35955,0,0,1-.38587-.01855,1.24249,1.24249,0,0,1-.24655-.04966.266.266,0,0,1-.13053-.0788.16188.16188,0,0,1-.03953-.10813v-7.424a.16179.16179,0,0,1,.03953-.108.2645.2645,0,0,1,.13053-.07874,1.26269,1.26269,0,0,1,.24655-.04984,3.39029,3.39029,0,0,1,.38587-.01844,3.34689,3.34689,0,0,1,.38762.01844,1.25037,1.25037,0,0,1,.24256.04984.24171.24171,0,0,1,.12854.07874.1719.1719,0,0,1,.03724.108v2.88582h2.93983V12.3876a.16173.16173,0,0,1,.03952-.108.25052.25052,0,0,1,.12654-.07874,1.20938,1.20938,0,0,1,.24256-.04984,3.44879,3.44879,0,0,1,.39187-.01844,3.2931,3.2931,0,0,1,.38331.01844,1.241,1.241,0,0,1,.24258.04984.26684.26684,0,0,1,.13082.07874.16307.16307,0,0,1,.03923.108v7.424Z"/><path class="cls-1" d="M88.06161,18.83945c0,.10152-.002.18651-.00826.257a1.55494,1.55494,0,0,1-.027.18259.47919.47919,0,0,1-.04977.13048.58125.58125,0,0,1-.09725.1246,1.266,1.266,0,0,1-.25705.1802,3.06056,3.06056,0,0,1-.46866.20935,4.26,4.26,0,0,1-1.39938.23432,4.04945,4.04945,0,0,1-1.45768-.25079,2.87071,2.87071,0,0,1-1.105-.74223,3.32265,3.32265,0,0,1-.6987-1.23782,5.54564,5.54564,0,0,1-.24453-1.725,5.45755,5.45755,0,0,1,.26758-1.77879,3.68935,3.68935,0,0,1,.74844-1.3061,3.12069,3.12069,0,0,1,1.15056-.80247,3.88076,3.88076,0,0,1,1.47816-.27358,3.49287,3.49287,0,0,1,.63243.056,3.54735,3.54735,0,0,1,.56192.143,2.77721,2.77721,0,0,1,.46437.203,1.41844,1.41844,0,0,1,.288.19716.56167.56167,0,0,1,.11206.13678.51569.51569,0,0,1,.04976.13906,1.62081,1.62081,0,0,1,.027.201c.006.07679.00823.17206.00823.28613,0,.12026-.00425.22374-.01051.30878a.79612.79612,0,0,1-.04351.20733.26908.26908,0,0,1-.07251.114.14271.14271,0,0,1-.09754.03753.4228.4228,0,0,1-.23-.10574,3.72119,3.72119,0,0,0-.36286-.23861,2.91077,2.91077,0,0,0-.52666-.23629,2.26477,2.26477,0,0,0-.734-.10581,1.7271,1.7271,0,0,0-1.45938.73819,2.55641,2.55641,0,0,0-.39187.8582,4.98351,4.98351,0,0,0,.00825,2.33665,2.33378,2.33378,0,0,0,.40836.83555,1.6655,1.6655,0,0,0,.63673.48941,2.1404,2.1404,0,0,0,.84171.1595,2.39953,2.39953,0,0,0,.73367-.0995,3.02259,3.02259,0,0,0,.53291-.22183,4.16,4.16,0,0,0,.36484-.21982.44754.44754,0,0,1,.22181-.09527.16342.16342,0,0,1,.09555.02277.18853.18853,0,0,1,.062.09748.94616.94616,0,0,1,.03525.203c.00853.08707.01253.20335.01253.35042Z"/><path class="cls-1" d="M95.33235,19.82219a.175.175,0,0,1-.03527.10776.27634.27634,0,0,1-.12854.07483,1.17241,1.17241,0,0,1-.24654.04549c-.10152.01023-.23006.01647-.3856.01647-.15356,0-.28208-.00624-.38561-.01647a1.17908,1.17908,0,0,1-.24484-.04549.27708.27708,0,0,1-.13053-.07483.15669.15669,0,0,1-.03923-.10776V13.501H90.80861v6.32119a.16831.16831,0,0,1-.03925.10776.29873.29873,0,0,1-.13079.07483,1.20324,1.20324,0,0,1-.24458.04549c-.09952.01023-.23.01647-.38759.01647-.15356,0-.2821-.00624-.38562-.01647a1.17223,1.17223,0,0,1-.24682-.04549.26007.26007,0,0,1-.12655-.07483.16666.16666,0,0,1-.03724-.10776V12.67372a.508.508,0,0,1,.12852-.37931.46377.46377,0,0,1,.3401-.12455h5.19346a.45449.45449,0,0,1,.3401.12455.52406.52406,0,0,1,.12.37931v7.14847Z"/><path class="cls-1" d="M104.1145,16.0094a5.81387,5.81387,0,0,1-.24256,1.74769,3.50678,3.50678,0,0,1-.72343,1.31038,3.13326,3.13326,0,0,1-1.18581.819,4.39671,4.39671,0,0,1-1.638.28184A4.84677,4.84677,0,0,1,98.724,19.93a2.76175,2.76175,0,0,1-1.138-.73194,3.13014,3.13014,0,0,1-.68422-1.25209,6.308,6.308,0,0,1-.22806-1.79746,5.58206,5.58206,0,0,1,.24457-1.71676,3.5105,3.5105,0,0,1,.72144-1.29557,3.15148,3.15148,0,0,1,1.1881-.82127,4.36242,4.36242,0,0,1,1.64193-.2838,4.81994,4.81994,0,0,1,1.57769.23634,2.7663,2.7663,0,0,1,1.14031.72766,3.16181,3.16181,0,0,1,.69244,1.24382,5.91148,5.91148,0,0,1,.23431,1.77052Zm-1.67522.085a6.04883,6.04883,0,0,0-.09725-1.12779,2.41924,2.41924,0,0,0-.33186-.86873,1.57242,1.57242,0,0,0-.62192-.55768,2.12179,2.12179,0,0,0-.97225-.19912,2.00157,2.00157,0,0,0-.98477.2219,1.83924,1.83924,0,0,0-.6367.59319,2.483,2.483,0,0,0-.34407.86451,5.334,5.334,0,0,0-.09953,1.049,6.29214,6.29214,0,0,0,.09753,1.15681,2.48186,2.48186,0,0,0,.32759.877,1.499,1.499,0,0,0,.61992.55566,2.19391,2.19391,0,0,0,.97852.19275,2.01563,2.01563,0,0,0,.9828-.21976,1.75916,1.75916,0,0,0,.63838-.5949,2.49977,2.49977,0,0,0,.34209-.877,5.30389,5.30389,0,0,0,.10152-1.06583Z"/><path class="cls-1" d="M110.84042,14.55624a3.08852,3.08852,0,0,1-.20733,1.17334,2.244,2.244,0,0,1-.60144.8582,2.64963,2.64963,0,0,1-.968.53289,4.52627,4.52627,0,0,1-1.3519.18258h-.6552V19.8116a.17409.17409,0,0,1-.03923.10813.26816.26816,0,0,1-.13082.0788,1.28171,1.28171,0,0,1-.24455.04966,3.29262,3.29262,0,0,1-.38759.01855,3.35122,3.35122,0,0,1-.38561-.01855,1.24158,1.24158,0,0,1-.24683-.04966.23627.23627,0,0,1-.12653-.0788.17208.17208,0,0,1-.03728-.10813V12.74a.5667.5667,0,0,1,.1493-.42708.543.543,0,0,1,.39185-.143h1.85127c.18681,0,.36511.00625.53288.0207a5.91262,5.91262,0,0,1,.60346.09123,2.65033,2.65033,0,0,1,.71317.25913,2.07954,2.07954,0,0,1,.61766.47686,1.97455,1.97455,0,0,1,.38789.67371,2.63207,2.63207,0,0,1,.1348.86475Zm-1.67124.116a1.40537,1.40537,0,0,0-.145-.68,1.02082,1.02082,0,0,0-.35858-.3961,1.18894,1.18894,0,0,0-.44591-.1595,3.32345,3.32345,0,0,0-.48314-.03325h-.67993v2.6662h.71519a1.73893,1.73893,0,0,0,.64068-.10379,1.11153,1.11153,0,0,0,.42315-.288,1.2381,1.2381,0,0,0,.24854-.44368,1.80379,1.80379,0,0,0,.085-.5619Z"/><path class="cls-1" d="M117.25463,12.825a2.40892,2.40892,0,0,1-.01651.30058.79715.79715,0,0,1-.0455.201.27837.27837,0,0,1-.07477.112.1584.1584,0,0,1-.10152.03729h-1.96756V19.8116a.16312.16312,0,0,1-.03924.10813.26821.26821,0,0,1-.13082.0788,1.24221,1.24221,0,0,1-.24654.04966,3.30953,3.30953,0,0,1-.3856.01855,3.35072,3.35072,0,0,1-.38559-.01855,1.25292,1.25292,0,0,1-.24486-.04966.24965.24965,0,0,1-.13053-.0788.16187.16187,0,0,1-.03952-.10813V13.476h-1.96954a.14722.14722,0,0,1-.10152-.03729.27822.27822,0,0,1-.0745-.112.908.908,0,0,1-.04578-.201c-.00825-.083-.01451-.18228-.01451-.30058,0-.12025.00626-.22379.01451-.30884a.90548.90548,0,0,1,.04578-.20328.255.255,0,0,1,.0745-.10979.15378.15378,0,0,1,.10152-.03325h5.5398a.16532.16532,0,0,1,.10152.03325.25514.25514,0,0,1,.07477.10979.79719.79719,0,0,1,.0455.20328,2.55481,2.55481,0,0,1,.01651.30884Z"/><path class="cls-1" d="M123.77948,19.4346a2.23656,2.23656,0,0,1,.09126.346.21.21,0,0,1-.04975.19092.38571.38571,0,0,1-.23633.07874c-.114.01023-.26955.01647-.46864.01647-.2053,0-.3671-.004-.48313-.01022a1.33224,1.33224,0,0,1-.26332-.03527.24816.24816,0,0,1-.12854-.07679.46193.46193,0,0,1-.06-.12858l-.52866-1.57759h-2.95232l-.49764,1.53614a.498.498,0,0,1-.06428.143.26305.26305,0,0,1-.12651.09136,1.00826,1.00826,0,0,1-.24884.04549q-.16167.01277-.42286.01249a3.99,3.99,0,0,1-.43736-.01855.32339.32339,0,0,1-.21783-.08921.23074.23074,0,0,1-.0435-.1968,2.08348,2.08348,0,0,1,.09128-.34013l2.42368-6.97237a.62969.62969,0,0,1,.085-.16789.319.319,0,0,1,.15528-.09748,1.314,1.314,0,0,1,.29459-.04151c.12429-.00625.29235-.01023.49738-.01023.23859,0,.42942.004.57243.01023a1.64007,1.64007,0,0,1,.32957.04151.31017.31017,0,0,1,.17007.10152.55147.55147,0,0,1,.089.18259l2.43,6.96618ZM120.17,13.671h-.00628l-1.11129,3.3399h2.22889L120.17,13.671Z"/><path class="cls-1" d="M61.549,31.86378a.15715.15715,0,0,1-.03952.10782.29978.29978,0,0,1-.13053.07476,1.17585,1.17585,0,0,1-.24683.0455c-.10152.01022-.23006.01653-.38561.01653-.15327,0-.28181-.00631-.38561-.01653a1.10376,1.10376,0,0,1-.24256-.0455.27222.27222,0,0,1-.12427-.07476.16526.16526,0,0,1-.03726-.10782V27.72139c0-.15754.002-.31307.006-.46437q.00643-.22694.01877-.40436h-.01251c-.031.05829-.07052.12258-.114.19906q-.06825.11214-.143.23629c-.05174.083-.1035.168-.16153.25508-.056.087-.112.1701-.17.2508L56.648,31.87008a.83766.83766,0,0,1-.10181.116.34355.34355,0,0,1-.13252.07672.95936.95936,0,0,1-.20105.03527c-.07876.00631-.18058.01029-.30684.01029a3.74415,3.74415,0,0,1-.38161-.01653.97509.97509,0,0,1-.22807-.0455.207.207,0,0,1-.112-.079.203.203,0,0,1-.031-.114v-7.4346a.157.157,0,0,1,.03954-.10776.28722.28722,0,0,1,.13452-.07452,1.18648,1.18648,0,0,1,.24483-.0458c.10152-.01016.23006-.01647.38361-.01647.15754,0,.28608.00631.3876.01647a1.1356,1.1356,0,0,1,.24257.0458.26477.26477,0,0,1,.12853.07452.16662.16662,0,0,1,.03725.10776v4.16517c0,.13054-.002.26763-.00626.41464-.004.1453-.01022.28607-.01847.42506H56.739c.06851-.12221.15554-.26751.26133-.43761.10579-.16973.21355-.33584.32759-.49963l2.73251-4.07387a.7995.7995,0,0,1,.09126-.10777.431.431,0,0,1,.13053-.07451.82129.82129,0,0,1,.20333-.04348,3.06723,3.06723,0,0,1,.31081-.01255,3.61773,3.61773,0,0,1,.37338.01647,1.03334,1.03334,0,0,1,.22807.0458.246.246,0,0,1,.118.07452.18622.18622,0,0,1,.03327.11407v7.43876Z"/><path class="cls-1" d="M71.50877,30.881c0,.10152-.002.18656-.00825.257a1.54843,1.54843,0,0,1-.027.18259.48.48,0,0,1-.04973.13054.5835.5835,0,0,1-.09728.12454,1.26741,1.26741,0,0,1-.25706.18026,3.06027,3.06027,0,0,1-.46865.20928,3.98238,3.98238,0,0,1-.63243.16582,4.34965,4.34965,0,0,1-2.2246-.18229,2.87068,2.87068,0,0,1-1.10507-.74222,3.32139,3.32139,0,0,1-.6987-1.23783,5.54523,5.54523,0,0,1-.24456-1.725,5.45716,5.45716,0,0,1,.26759-1.77873,3.68854,3.68854,0,0,1,.74846-1.3061,3.12007,3.12007,0,0,1,1.15057-.80254,3.88084,3.88084,0,0,1,1.47814-.27351,3.49441,3.49441,0,0,1,.63246.056,3.56829,3.56829,0,0,1,.56189.143,2.77216,2.77216,0,0,1,.46436.20316,1.41444,1.41444,0,0,1,.28807.197.56279.56279,0,0,1,.112.13679.51464.51464,0,0,1,.04978.139,1.62913,1.62913,0,0,1,.027.20114c.006.07672.00827.172.00827.28607,0,.12025-.00429.22379-.01055.30878a.79578.79578,0,0,1-.04349.20733.26927.26927,0,0,1-.07252.114.14265.14265,0,0,1-.09753.03753.42243.42243,0,0,1-.23007-.10574,3.70422,3.70422,0,0,0-.36285-.23862,2.91293,2.91293,0,0,0-.52665-.23628,2.26471,2.26471,0,0,0-.73395-.10581,1.72682,1.72682,0,0,0-1.45938.73825,2.55571,2.55571,0,0,0-.39187.8582,4.98316,4.98316,0,0,0,.00825,2.33665,2.33334,2.33334,0,0,0,.40836.83548,1.66548,1.66548,0,0,0,.6367.48941,2.14065,2.14065,0,0,0,.84174.15951,2.39962,2.39962,0,0,0,.73367-.0995,3.02233,3.02233,0,0,0,.5329-.22184,4.15927,4.15927,0,0,0,.36484-.21981.44732.44732,0,0,1,.2218-.09521.1638.1638,0,0,1,.09555.02271.18787.18787,0,0,1,.062.09754.94466.94466,0,0,1,.03526.203c.00853.087.01251.20334.01251.35036Z"/><path class="cls-1" d="M78.34841,29.714a2.35077,2.35077,0,0,1-.114.75869,2.089,2.089,0,0,1-.31934.60312,2.04331,2.04331,0,0,1-.48712.44783,2.76544,2.76544,0,0,1-.62191.31117,3.75912,3.75912,0,0,1-.72573.17831,5.73234,5.73234,0,0,1-.86051.058H73.13223a.49776.49776,0,0,1-.33809-.11836.48417.48417,0,0,1-.13679-.38556V24.71525a.48411.48411,0,0,1,.13679-.3855.49772.49772,0,0,1,.33809-.1183h1.97353a5.28343,5.28343,0,0,1,1.22336.12228,2.40366,2.40366,0,0,1,.84372.36713,1.62462,1.62462,0,0,1,.52667.62191,2.0352,2.0352,0,0,1,.18255.88722,1.87943,1.87943,0,0,1-.0748.53717,1.57346,1.57346,0,0,1-.21157.45813,1.55433,1.55433,0,0,1-.34408.3648,1.70092,1.70092,0,0,1-.46437.25509,2.09456,2.09456,0,0,1,.61794.21357,1.73014,1.73014,0,0,1,.49138.39187,1.822,1.822,0,0,1,.33158.5616,2.02884,2.02884,0,0,1,.12027.72178Zm-2.06509-3.30893a1.176,1.176,0,0,0-.07249-.42512.75125.75125,0,0,0-.21984-.31313.99328.99328,0,0,0-.36684-.19281,2.15074,2.15074,0,0,0-.59091-.06625h-.80847v2.04006h.8935a1.54007,1.54007,0,0,0,.55141-.081.96049.96049,0,0,0,.34435-.2238.92491.92491,0,0,0,.203-.33584,1.23216,1.23216,0,0,0,.06625-.4021Zm.40637,3.36464a1.2216,1.2216,0,0,0-.091-.4891.93123.93123,0,0,0-.26559-.36285,1.25137,1.25137,0,0,0-.44988-.22379,2.64955,2.64955,0,0,0-.71091-.07911h-.94754v2.23519H75.3796a1.90733,1.90733,0,0,0,.56163-.07053,1.12958,1.12958,0,0,0,.39414-.20531.94142.94142,0,0,0,.261-.34013,1.1038,1.1038,0,0,0,.09327-.46437Z"/><path class="cls-1" d="M84.96823,31.86378a.17526.17526,0,0,1-.03526.10782.272.272,0,0,1-.12426.07476,1.15026,1.15026,0,0,1-.24457.0455c-.10152.01022-.23033.01653-.38559.01653-.15755,0-.28609-.00631-.38788-.01653a1.25874,1.25874,0,0,1-.24656-.0455.27715.27715,0,0,1-.13079-.07476.1769.1769,0,0,1-.03526-.10782V28.924h-.58864a1.60907,1.60907,0,0,0-.55768.07457.93334.93334,0,0,0-.3401.224,1.56977,1.56977,0,0,0-.26332.37938,4.54862,4.54862,0,0,0-.22379.53687l-.59718,1.70225a.38683.38683,0,0,1-.07877.12423.359.359,0,0,1-.1473.085,1.23572,1.23572,0,0,1-.26533.0455c-.10975.00857-.24881.01255-.41887.01255a4.06631,4.06631,0,0,1-.43933-.01849.99661.99661,0,0,1-.24684-.05205.21534.21534,0,0,1-.10977-.07647.17264.17264,0,0,1-.02275-.0913.62093.62093,0,0,1,.02077-.14732,2.68662,2.68662,0,0,1,.087-.26537L79.7748,29.915a4.60748,4.60748,0,0,1,.2386-.52866A2.48954,2.48954,0,0,1,80.283,28.982a1.83072,1.83072,0,0,1,.31509-.30058,1.52451,1.52451,0,0,1,.36882-.19507,2.77319,2.77319,0,0,1-.66544-.26929,1.80093,1.80093,0,0,1-.48712-.40632,1.664,1.664,0,0,1-.29659-.55371,2.30053,2.30053,0,0,1-.09953-.70071,2.42293,2.42293,0,0,1,.18457-.96823,1.91094,1.91094,0,0,1,.54938-.73794,2.54091,2.54091,0,0,1,.90827-.47067,5.364,5.364,0,0,1,1.51541-.168h1.926a.44345.44345,0,0,1,.46636.5038v7.14853ZM83.37806,25.445h-.821a2.7552,2.7552,0,0,0-.7712.07874,1.05739,1.05739,0,0,0-.4166.22808.86827.86827,0,0,0-.23232.35856,1.3738,1.3738,0,0,0-.07254.46437,1.27046,1.27046,0,0,0,.07879.45843.95858.95858,0,0,0,.24256.36487,1.12806,1.12806,0,0,0,.41887.23824,2.37482,2.37482,0,0,0,.72969.085h.84374V25.445Z"/><path class="cls-1" d="M91.40153,29.79274a2.33993,2.33993,0,0,1-.2261,1.04905,2.09017,2.09017,0,0,1-.64038.7587,2.89419,2.89419,0,0,1-.99528.45806,5.06139,5.06139,0,0,1-1.28537.15124,4.21952,4.21952,0,0,1-.7132-.05364,3.812,3.812,0,0,1-.56616-.13679,2.408,2.408,0,0,1-.38561-.16183,1.11164,1.11164,0,0,1-.205-.13048.32778.32778,0,0,1-.09128-.10581.48842.48842,0,0,1-.04978-.15558,2.10648,2.10648,0,0,1-.027-.2508c-.00625-.10152-.00825-.22612-.00825-.37736a.83558.83558,0,0,1,.04549-.34209.1428.1428,0,0,1,.13679-.089.458.458,0,0,1,.2053.07654c.0893.04978.20333.10776.34012.17206a2.90172,2.90172,0,0,0,.49764.17628,2.6003,2.6003,0,0,0,.68817.0788,2.05171,2.05171,0,0,0,.59518-.0788,1.319,1.319,0,0,0,.45188-.2238,1.04115,1.04115,0,0,0,.288-.35036.98525.98525,0,0,0,.10379-.45212,1.20211,1.20211,0,0,0-.09526-.49137.90925.90925,0,0,0-.29461-.37111,1.46143,1.46143,0,0,0-.50588-.23408,2.93307,2.93307,0,0,0-.73793-.081h-.83349a.35991.35991,0,0,1-.145-.02474.17193.17193,0,0,1-.0873-.09129.4941.4941,0,0,1-.0435-.18455c-.00624-.07886-.00823-.18454-.00823-.31313a2.697,2.697,0,0,1,.01252-.288.49934.49934,0,0,1,.04548-.18057.19867.19867,0,0,1,.085-.09331.2545.2545,0,0,1,.12454-.02676h.84372a2.7012,2.7012,0,0,0,.65519-.07274,1.34818,1.34818,0,0,0,.47689-.21553.95278.95278,0,0,0,.29234-.34613,1.05542,1.05542,0,0,0,.09953-.46437,1.09677,1.09677,0,0,0-.07054-.40234.74992.74992,0,0,0-.21556-.30689,1.04459,1.04459,0,0,0-.36909-.19483,1.84816,1.84816,0,0,0-.53491-.06845,2.45519,2.45519,0,0,0-.65519.07874,3.976,3.976,0,0,0-.50788.17009c-.143.06025-.26531.1183-.36484.172a.51841.51841,0,0,1-.2221.083.11347.11347,0,0,1-.07251-.025.18911.18911,0,0,1-.05374-.087.58565.58565,0,0,1-.03325-.17408c-.00628-.0725-.01026-.168-.01026-.284,0-.083.002-.15754.00628-.22606a1.23127,1.23127,0,0,1,.02472-.18858.65.65,0,0,1,.04776-.14732.43407.43407,0,0,1,.09527-.1265,1.24514,1.24514,0,0,1,.26135-.15755,2.88433,2.88433,0,0,1,.48284-.1783,5.42162,5.42162,0,0,1,.643-.13679,4.92387,4.92387,0,0,1,.7587-.05376,4.06529,4.06529,0,0,1,1.10306.13257,2.21737,2.21737,0,0,1,.7857.38556,1.58439,1.58439,0,0,1,.47464.61995,2.327,2.327,0,0,1,.054,1.52787,1.7273,1.7273,0,0,1-.74846.94355,1.92532,1.92532,0,0,1-.58666.23433v.01225a1.90263,1.90263,0,0,1,.67567.20328,1.81118,1.81118,0,0,1,.52665.41036,1.84731,1.84731,0,0,1,.34012.56815,1.90039,1.90039,0,0,1,.12228.68223Z"/><path class="cls-1" d="M99.07891,31.86378a.15717.15717,0,0,1-.03954.10782.29963.29963,0,0,1-.13051.07476,1.17607,1.17607,0,0,1-.24685.0455c-.10152.01022-.23.01653-.3856.01653-.15328,0-.28181-.00631-.38561-.01653a1.10412,1.10412,0,0,1-.24256-.0455.27221.27221,0,0,1-.12428-.07476.16535.16535,0,0,1-.03724-.10782V27.72139c0-.15754.002-.31307.006-.46437q.00639-.22694.01877-.40436h-.01252c-.031.05829-.07051.12258-.114.19906q-.06825.11214-.143.23629c-.05176.083-.10351.168-.16153.25508-.056.087-.112.1701-.17.2508l-2.73249,4.07619a.837.837,0,0,1-.10181.116.3437.3437,0,0,1-.13252.07672.95914.95914,0,0,1-.201.03527c-.07878.00631-.18059.01029-.30684.01029a3.7435,3.7435,0,0,1-.3816-.01653.97474.97474,0,0,1-.22808-.0455.20708.20708,0,0,1-.112-.079.203.203,0,0,1-.031-.114v-7.4346a.157.157,0,0,1,.03954-.10776.28708.28708,0,0,1,.1345-.07452,1.18711,1.18711,0,0,1,.24485-.0458c.10152-.01016.23007-.01647.3836-.01647.15755,0,.28608.00631.38762.01647a1.13552,1.13552,0,0,1,.24254.0458.26466.26466,0,0,1,.12854.07452.16663.16663,0,0,1,.03726.10776v4.16517c0,.13054-.002.26763-.00626.41464-.004.1453-.01024.28607-.01848.42506h.01223c.06853-.12221.15554-.26751.26135-.43761.10577-.16973.21354-.33584.32756-.49963l2.73251-4.07387a.7974.7974,0,0,1,.09128-.10777.431.431,0,0,1,.13054-.07451.82122.82122,0,0,1,.20331-.04348,3.06745,3.06745,0,0,1,.31082-.01255,3.61866,3.61866,0,0,1,.37339.01647,1.03349,1.03349,0,0,1,.22806.0458.24621.24621,0,0,1,.118.07452.18622.18622,0,0,1,.03326.11407v7.43876Z"/></svg>