<svg id="Layer_1" data-name="Layer 1" xmlns="http://www.w3.org/2000/svg" viewBox="0 0 50 50">
	<defs>
		<style>
			.cls-1 {
				fill: #fff;
			}

			.cls-2 {
				fill: #134874;
			}
		</style>
	</defs>
	<title>TSI_logo_EN_white</title>
	<path class="cls-1"
		d="M5.96693,0S0,0,0,6.05708V44.03281S0,50,5.96693,50h37.974s6.05826,0,6.05826-5.96719V6.05708S49.99919,0,43.94093,0Z" />
	<polygon class="cls-2"
		points="13.562 32.188 16.817 32.188 16.817 20.614 20.704 20.614 20.704 17.903 9.765 17.903 9.765 20.614 13.562 20.614 13.562 32.188 13.562 32.188" />
	<path class="cls-2"
		d="M22.78435,31.283a9.49637,9.49637,0,0,0,3.79692.81559c3.61862,0,5.24491-1.99029,5.24491-4.25134,0-1.897-1.08574-3.163-3.34477-4.06716-1.71845-.72313-2.44273-1.08622-2.44273-1.99023,0-.633.54259-1.266,1.89987-1.266a5.964,5.964,0,0,1,2.71175.633l.633-2.53a7.50233,7.50233,0,0,0-3.34477-.63416c-3.07462,0-4.97277,1.71843-4.97277,4.06905,0,1.98833,1.44574,3.25549,3.61549,4.0679,1.62828.63306,2.26129,1.08463,2.26129,1.90022,0,.90363-.72343,1.53669-2.0796,1.53669a6.95843,6.95843,0,0,1-3.34477-.90492L22.78435,31.283Z" />
	<polygon class="cls-2" points="35.805 32.188 39.06 32.188 39.06 17.902 35.805 17.902 35.805 32.188 35.805 32.188" />	
</svg>